<svg xmlns="http://www.w3.org/2000/svg" viewBox="0 0 83.07 83.68"><defs><style>.cls-1{fill:#007eff;}.cls-2{fill:#00a6ff;}.cls-3{fill:#00d4ff;}.cls-4{fill:#00f5ff;}</style></defs><g id="Layer_2" data-name="Layer 2"><g id="Layer_1-2" data-name="Layer 1"><path class="cls-1" d="M4.43,58.48S-1.82,40.72.53,30.23c3.53-15.83,38.32-15,38.32-15S25.19,19.28,18,27.18C3.35,43.33,4.43,58.48,4.43,58.48Z"/><path class="cls-2" d="M8.57,18S20.83,3.74,31.08.52C46.56-4.33,63.26,26.19,63.26,26.19s-10.37-9.78-20.8-12C21.16,9.52,8.57,18,8.57,18Z"/><path class="cls-3" d="M45.67,1.39S64.18,4.86,72.09,12.13C84,23.11,66,52.83,66,52.83s3.29-13.87,0-24C59.34,8,45.67,1.39,45.67,1.39Z"/><path class="cls-4" d="M78.64,25.2S84.88,43,82.54,53.45c-3.54,15.83-38.32,15-38.32,15s13.66-4.09,20.84-12C79.71,40.36,78.64,25.2,78.64,25.2Z"/><path class="cls-3" d="M74.5,65.65S62.24,79.94,52,83.16C36.5,88,19.8,57.49,19.8,57.49s10.37,9.79,20.8,12.05C61.91,74.16,74.5,65.65,74.5,65.65Z"/><path class="cls-2" d="M37.39,82.29S18.89,78.82,11,71.55c-12-11,6.13-40.7,6.13-40.7s-3.28,13.87,0,24C23.73,75.65,37.39,82.29,37.39,82.29Z"/></g></g></svg>