<svg xmlns="http://www.w3.org/2000/svg" viewBox="0 0 205.87 51.87"><defs><style>.cls-1{fill:#333;}</style></defs><g id="Layer_2" data-name="Layer 2"><g id="Layer_1-2" data-name="Layer 1"><path class="cls-1" d="M0,40.47V.55H12.34a20,20,0,0,1,5.36.66,10.59,10.59,0,0,1,4,2,8.64,8.64,0,0,1,2.51,3.42,12.36,12.36,0,0,1,.87,4.85,11.91,11.91,0,0,1-.29,2.63,8.55,8.55,0,0,1-2.47,4.35,7.79,7.79,0,0,1-2.26,1.46,7.18,7.18,0,0,1,2.6,1.33,7.41,7.41,0,0,1,1.73,2.07,9.21,9.21,0,0,1,1,2.57,13.26,13.26,0,0,1,.3,2.83c0,3.88-1.06,6.8-3.19,8.78s-5.22,3-9.25,3ZM8.06,17.25h4.2A4.67,4.67,0,0,0,15.83,16,5.16,5.16,0,0,0,17,12.34a5.66,5.66,0,0,0-1.1-3.9,4.69,4.69,0,0,0-3.56-1.17H8.06Zm0,5.86V33.78h5.16a4.74,4.74,0,0,0,2-.39,3.48,3.48,0,0,0,1.37-1.08,4.41,4.41,0,0,0,.78-1.63,7.81,7.81,0,0,0,.25-2.06,7.44,7.44,0,0,0-.95-4,3.5,3.5,0,0,0-3.19-1.48Z"/><path class="cls-1" d="M28.7,40.47V.55H41a20,20,0,0,1,5.36.66,10.71,10.71,0,0,1,4,2,8.73,8.73,0,0,1,2.51,3.42,12.55,12.55,0,0,1,.86,4.85,11.34,11.34,0,0,1-.29,2.63,8.73,8.73,0,0,1-.9,2.36,8.46,8.46,0,0,1-1.56,2,7.84,7.84,0,0,1-2.27,1.46,7.15,7.15,0,0,1,2.61,1.33,7.58,7.58,0,0,1,1.73,2.07,9.53,9.53,0,0,1,1,2.57,13.26,13.26,0,0,1,.3,2.83c0,3.88-1.07,6.8-3.2,8.78s-5.21,3-9.25,3Zm8.06-23.22H41A4.69,4.69,0,0,0,44.53,16a5.16,5.16,0,0,0,1.16-3.66,5.66,5.66,0,0,0-1.09-3.9A4.7,4.7,0,0,0,41,7.27H36.76Zm0,5.86V33.78h5.15a4.76,4.76,0,0,0,2-.39,3.55,3.55,0,0,0,1.37-1.08,4.74,4.74,0,0,0,.78-1.63,8.26,8.26,0,0,0,.24-2.06,7.44,7.44,0,0,0-.94-4,3.52,3.52,0,0,0-3.2-1.48Z"/><path class="cls-1" d="M84.45,27.17q-.3,6.82-3.84,10.34T70.63,41a15.17,15.17,0,0,1-5.92-1.1,11.27,11.27,0,0,1-4.39-3.26A15,15,0,0,1,57.6,31.3a25.67,25.67,0,0,1-1-7.36v-6.8a25.43,25.43,0,0,1,1-7.38,14.89,14.89,0,0,1,2.81-5.37,11.86,11.86,0,0,1,4.44-3.28A14.87,14.87,0,0,1,70.74,0q6.53,0,9.91,3.65T84.5,14.12H76.42a19.73,19.73,0,0,0-.37-3.58,5.7,5.7,0,0,0-1-2.29,3.61,3.61,0,0,0-1.71-1.2,8.2,8.2,0,0,0-2.62-.36A6.19,6.19,0,0,0,68,7.24,4.2,4.2,0,0,0,66.14,9a9.51,9.51,0,0,0-1.06,3.21,29,29,0,0,0-.34,4.86v6.86A36,36,0,0,0,65,28.71a9.29,9.29,0,0,0,1,3.22,4.29,4.29,0,0,0,1.81,1.82,6.28,6.28,0,0,0,2.85.58A9,9,0,0,0,73.17,34a3.63,3.63,0,0,0,1.74-1.11,5.32,5.32,0,0,0,1-2.19,17.52,17.52,0,0,0,.44-3.54Z"/><path class="cls-1" d="M95,40.47H87V.55H95Z"/><path class="cls-1" d="M102.74,10.8l.09,4.72a10.92,10.92,0,0,1,3.35-3.84,8,8,0,0,1,4.65-1.43,8.75,8.75,0,0,1,3.33.61,6,6,0,0,1,2.5,1.92,9.22,9.22,0,0,1,1.57,3.38,19.6,19.6,0,0,1,.55,5v19.3h-3V21.14a15.67,15.67,0,0,0-.4-3.81,6.62,6.62,0,0,0-1.14-2.46,4.11,4.11,0,0,0-1.79-1.31,6.64,6.64,0,0,0-2.38-.4,5.67,5.67,0,0,0-2.51.56,7.79,7.79,0,0,0-2,1.5A9.73,9.73,0,0,0,104,17.36a13.34,13.34,0,0,0-1.07,2.52V40.47h-3V10.8Z"/><path class="cls-1" d="M133.44,38.19a9,9,0,0,0,2.44-.33,5.48,5.48,0,0,0,2.1-1.12,5.9,5.9,0,0,0,1.5-2.13,9.07,9.07,0,0,0,.68-3.33h2.93a11.74,11.74,0,0,1-.91,4.21,8.85,8.85,0,0,1-2.11,3,9,9,0,0,1-3,1.86,10.36,10.36,0,0,1-3.62.63q-5.35,0-8-3.46t-2.7-10.25V24q0-6.8,2.7-10.25c1.8-2.3,4.48-3.46,8-3.46a10.78,10.78,0,0,1,3.77.65,8.11,8.11,0,0,1,3,1.95,9.39,9.39,0,0,1,2,3.29,14.3,14.3,0,0,1,.85,4.67h-2.93a11.66,11.66,0,0,0-.63-3.52,7,7,0,0,0-1.44-2.4A5.33,5.33,0,0,0,136,13.53a7.73,7.73,0,0,0-2.59-.42,8,8,0,0,0-3.56.72A5.9,5.9,0,0,0,127.49,16a10,10,0,0,0-1.32,3.41,23.36,23.36,0,0,0-.41,4.59v3.35a23.84,23.84,0,0,0,.4,4.63,9.49,9.49,0,0,0,1.3,3.41,6,6,0,0,0,2.37,2.12A8.15,8.15,0,0,0,133.44,38.19Z"/><path class="cls-1" d="M145.57,24.13a20.21,20.21,0,0,1,.8-5.95,12.92,12.92,0,0,1,2.22-4.35A9.26,9.26,0,0,1,152,11.16a10.56,10.56,0,0,1,4.4-.91,10.76,10.76,0,0,1,4.45.91,9.21,9.21,0,0,1,3.42,2.67,12.73,12.73,0,0,1,2.21,4.35,20.58,20.58,0,0,1,.78,5.95V27.2a20.58,20.58,0,0,1-.78,5.95,12.4,12.4,0,0,1-2.21,4.32,9.39,9.39,0,0,1-3.41,2.64,10.4,10.4,0,0,1-4.4.91,10.52,10.52,0,0,1-4.44-.91,9.29,9.29,0,0,1-3.43-2.64,12.58,12.58,0,0,1-2.22-4.32,20.21,20.21,0,0,1-.8-5.95Zm3.07,3.07a18.35,18.35,0,0,0,.53,4.58,10.29,10.29,0,0,0,1.52,3.45,6.83,6.83,0,0,0,2.45,2.19,6.92,6.92,0,0,0,3.32.77,7.17,7.17,0,0,0,3.43-.77,6.64,6.64,0,0,0,2.41-2.19,10.43,10.43,0,0,0,1.44-3.45,20,20,0,0,0,.48-4.58V24.13a18.69,18.69,0,0,0-.52-4.54,10.88,10.88,0,0,0-1.52-3.48,7,7,0,0,0-2.46-2.22,6.9,6.9,0,0,0-3.32-.78,6.75,6.75,0,0,0-3.27.78,7,7,0,0,0-2.44,2.22,10.46,10.46,0,0,0-1.52,3.48,18.19,18.19,0,0,0-.53,4.54Z"/><path class="cls-1" d="M183.1,13.65c-.31-.05-.62-.1-.92-.13a7.68,7.68,0,0,0-1-.06,5.92,5.92,0,0,0-2.43.48,5.79,5.79,0,0,0-1.9,1.35,8.14,8.14,0,0,0-1.42,2.07,11.82,11.82,0,0,0-.91,2.63V40.47h-3.05V10.8h3l.06,4.44a9.33,9.33,0,0,1,2.68-3.66,6.46,6.46,0,0,1,4.12-1.33,5.67,5.67,0,0,1,1,.11,3.19,3.19,0,0,1,.79.25Z"/><path class="cls-1" d="M205.87,27a26.43,26.43,0,0,1-.65,6.23,12.75,12.75,0,0,1-1.85,4.36,7.53,7.53,0,0,1-3,2.56,9.37,9.37,0,0,1-4,.84,9.08,9.08,0,0,1-4.6-1.09,8.67,8.67,0,0,1-3.11-3v15h-3V10.8h2.79l.14,4.06a9.65,9.65,0,0,1,3.12-3.39,8.32,8.32,0,0,1,4.58-1.22,10,10,0,0,1,4.09.8,7.41,7.41,0,0,1,3,2.49,12.09,12.09,0,0,1,1.87,4.35,27.86,27.86,0,0,1,.63,6.37Zm-3-2.77c0-3.8-.59-6.59-1.77-8.39a6.14,6.14,0,0,0-5.53-2.68,7.56,7.56,0,0,0-2.51.39,6.55,6.55,0,0,0-1.94,1.09,7.54,7.54,0,0,0-1.43,1.56,11.55,11.55,0,0,0-1,1.87V33.72a8.79,8.79,0,0,0,1.08,1.79,7.22,7.22,0,0,0,1.5,1.42,6.65,6.65,0,0,0,1.93.93,8.3,8.3,0,0,0,2.43.33,6.06,6.06,0,0,0,5.47-2.73q1.77-2.72,1.77-8.43Z"/></g></g></svg>