<svg width="101" height="101" viewBox="0 0 101 101" fill="none" xmlns="http://www.w3.org/2000/svg">
<g clip-path="url(#clip0)">
<path d="M1.10876 51.6088C1.10876 24.3309 23.2219 2.21759 50.4998 2.21759C77.7283 2.21759 99.9154 24.4251 99.8912 51.6536C99.8811 63.1024 95.9754 73.6395 89.4283 82.0108C87.369 84.6439 83.5518 85.1122 80.9197 83.0517C72.5347 76.4877 61.9743 72.5749 50.5 72.5749C38.0637 72.5749 26.7009 77.1713 18.0177 84.7578C16.7398 85.8742 14.7986 85.7815 13.6676 84.5165C5.85718 75.7807 1.10876 64.2493 1.10876 51.6088Z" fill="#55A4F9"/>
<path d="M8.97104 62.495H17.0349V85.3418C15.8792 85.7674 14.5351 85.4867 13.6676 84.5165C5.85718 75.7805 1.10876 64.2493 1.10876 51.6088C1.10876 51.2044 1.1136 50.8012 1.12328 50.3992H5.94709C6.5037 50.3992 6.95507 50.8506 6.95507 51.4072V60.4791C6.95507 61.5925 7.85762 62.495 8.97104 62.495ZM95.6577 59.5719C95.1011 59.5719 94.6497 59.1205 94.6497 58.5639V38.3036C94.6497 37.2299 93.8395 36.2923 92.768 36.2227C91.5939 36.1467 90.6177 37.0765 90.6177 38.2343V58.5639C90.6177 59.1205 90.1664 59.5719 89.6098 59.5719H81.5459V41.3274C81.5459 40.7708 81.0945 40.3194 80.5379 40.3194H61.3862C60.2728 40.3194 59.3702 39.4168 59.3702 38.3034V37.2954C59.3702 36.7388 58.9189 36.2874 58.3623 36.2874H41.2265V72.5749L77.9171 80.8772C78.9459 81.5651 79.9476 82.2904 80.9199 83.0517C83.5576 85.1166 87.3763 84.6366 89.439 81.9973C94.439 75.5994 97.8966 67.9379 99.2525 59.5719H95.6577Z" fill="#1380E2"/>
<path d="M69.4501 15.1197C69.4501 16.7897 68.0962 18.1437 66.4261 18.1437H46.2665C44.5964 18.1437 43.2425 16.7897 43.2425 15.1197C43.2425 13.4497 44.5964 12.0958 46.2665 12.0958H66.4261C68.0962 12.0958 69.4501 13.4497 69.4501 15.1197ZM52.3144 22.1756H32.1547C30.4847 22.1756 29.1307 23.5295 29.1307 25.1996C29.1307 26.8696 30.4847 28.2235 32.1547 28.2235H52.3144C53.9844 28.2235 55.3383 26.8696 55.3383 25.1996C55.3383 23.5295 53.9844 22.1756 52.3144 22.1756ZM88.6018 30.2395H78.5219C76.8519 30.2395 75.498 31.5934 75.498 33.2634C75.498 34.9335 76.8519 36.2874 78.5219 36.2874H88.6018C90.2718 36.2874 91.6257 34.9335 91.6257 33.2634C91.6257 31.5934 90.2718 30.2395 88.6018 30.2395ZM20.0589 36.2874H9.97903C8.309 36.2874 6.95508 37.6413 6.95508 39.3113C6.95508 40.9814 8.309 42.3353 9.97903 42.3353H20.0589C21.7289 42.3353 23.0828 40.9814 23.0828 39.3113C23.0828 37.6413 21.7289 36.2874 20.0589 36.2874Z" fill="#86BEFB"/>
<path d="M29.6601 36.2874C28.8251 36.2874 28.1482 35.6105 28.1482 34.7754V1.51198C28.1482 0.676962 28.8251 0 29.6601 0C30.4952 0 31.1721 0.676962 31.1721 1.51198V34.7754C31.1721 35.6105 30.4952 36.2874 29.6601 36.2874Z" fill="#453D83"/>
<path d="M45.7879 34.2715V77.693C45.7879 91.1127 30.2766 98.6369 19.7746 90.2821C17.526 88.4933 15.4371 86.5124 13.5324 84.3644V34.2715C13.5324 32.0446 15.3375 30.2395 17.5643 30.2395H22.4026V20.1597C22.4026 17.9328 24.2077 16.1277 26.4346 16.1277H32.8857C35.1125 16.1277 36.9176 17.9328 36.9176 20.1597V30.2395H41.7559C43.9826 30.2395 45.7879 32.0446 45.7879 34.2715V34.2715Z" fill="#51489A"/>
<path d="M31.9531 16.1277H32.8857C35.1125 16.1277 36.9176 17.9328 36.9176 20.1597V30.2395H41.7559C43.9828 30.2395 45.7878 32.0446 45.7878 34.2715V87.4763C45.7878 94.9876 38.1159 100.025 31.2025 97.088C26.7855 95.2116 22.698 92.7101 19.0509 89.6953V38.3034C19.0509 36.0766 20.856 34.2715 23.0828 34.2715H24.8972C26.5672 34.2715 27.9211 32.9175 27.9211 31.2475V20.1597C27.9211 17.9328 29.7262 16.1277 31.9531 16.1277V16.1277Z" fill="#5F55AF"/>
<path d="M21.0668 40.3194V82.6547C21.0668 83.7681 20.1643 84.6707 19.0508 84.6707C17.9374 84.6707 17.0349 83.7681 17.0349 82.6547V40.3194C17.0349 39.206 17.9374 38.3034 19.0508 38.3034C20.1643 38.3034 21.0668 39.206 21.0668 40.3194ZM26.4428 38.3034C25.3294 38.3034 24.4268 39.206 24.4268 40.3194V82.6547C24.4268 83.7681 25.3294 84.6707 26.4428 84.6707C27.5562 84.6707 28.4588 83.7681 28.4588 82.6547V40.3194C28.4588 39.206 27.5562 38.3034 26.4428 38.3034ZM33.8345 38.3034C32.7211 38.3034 31.8186 39.206 31.8186 40.3194V82.6547C31.8186 83.7681 32.7211 84.6707 33.8345 84.6707C34.948 84.6707 35.8505 83.7681 35.8505 82.6547V40.3194C35.8505 39.206 34.948 38.3034 33.8345 38.3034ZM41.2265 38.3034C40.1131 38.3034 39.2105 39.206 39.2105 40.3194V82.6547C39.2105 83.7681 40.1131 84.6707 41.2265 84.6707C42.3399 84.6707 43.2425 83.7681 43.2425 82.6547V40.3194C43.2425 39.206 42.3399 38.3034 41.2265 38.3034Z" fill="#453D83"/>
<path d="M31.1467 97.0643V53.4232C31.1467 51.7532 32.5006 50.3992 34.1707 50.3992H84.5699C86.2399 50.3992 87.5938 51.7532 87.5938 53.4232V84.2215C78.5423 94.5086 65.2793 101 50.5 101C43.6312 101 37.09 99.5979 31.1467 97.0643Z" fill="#FFC14F"/>
<path d="M37.1946 99.1871C35.1204 98.6083 33.1012 97.8975 31.1467 97.0643V53.4232C31.1467 51.7532 32.5006 50.3992 34.1707 50.3992H37.1946V99.1871Z" fill="#FFA90B"/>
<path d="M82.5539 61.487V79.6307C82.5539 80.7442 81.6513 81.6467 80.5379 81.6467H71.2644C70.151 81.6467 69.2485 80.7442 69.2485 79.6307V61.487C69.2485 60.3736 70.151 59.4711 71.2644 59.4711H80.5379C81.6513 59.4711 82.5539 60.3736 82.5539 61.487ZM64.0069 59.4711H54.7335C53.6201 59.4711 52.7175 60.3736 52.7175 61.487V79.6307C52.7175 80.7442 53.6201 81.6467 54.7335 81.6467H64.0069C65.1204 81.6467 66.0229 80.7442 66.0229 79.6307V61.487C66.0229 60.3736 65.1204 59.4711 64.0069 59.4711ZM64.0069 88.7026H54.7335C53.6201 88.7026 52.7175 89.6052 52.7175 90.7186V100.951C57.3468 100.746 61.8103 99.9047 66.0229 98.5113V90.7186C66.0229 89.6052 65.1204 88.7026 64.0069 88.7026ZM80.5379 88.7026H71.2644C70.151 88.7026 69.2485 89.6052 69.2485 90.7186V97.3172C73.9616 95.3819 78.3092 92.739 82.1593 89.5205C81.792 89.0244 81.2025 88.7026 80.5379 88.7026V88.7026ZM47.476 88.7026H38.2026C37.0891 88.7026 36.1866 89.6052 36.1866 90.7186V98.8941C40.4106 100.171 44.8736 100.897 49.492 100.99V90.7186C49.492 89.6052 48.5894 88.7026 47.476 88.7026ZM47.476 59.4711H38.2026C37.0891 59.4711 36.1866 60.3736 36.1866 61.487V79.6307C36.1866 80.7442 37.0891 81.6467 38.2026 81.6467H47.476C48.5894 81.6467 49.492 80.7442 49.492 79.6307V61.487C49.492 60.3736 48.5894 59.4711 47.476 59.4711Z" fill="#FFD993"/>
<path d="M79.7315 63.503V79.6307C79.7315 80.1875 79.2802 80.6387 78.7236 80.6387H73.0788C72.5222 80.6387 72.0709 80.1875 72.0709 79.6307V63.503C72.0709 62.9462 72.5222 62.495 73.0788 62.495H78.7236C79.2802 62.495 79.7315 62.9462 79.7315 63.503ZM62.1926 91.7265H56.5479C55.9913 91.7265 55.5399 92.1777 55.5399 92.7345V100.746C58.1595 100.48 60.7183 100.01 63.2006 99.3515V92.7345C63.2006 92.1777 62.7492 91.7265 62.1926 91.7265V91.7265ZM62.1926 62.495H56.5479C55.9913 62.495 55.5399 62.9462 55.5399 63.503V79.6307C55.5399 80.1875 55.9913 80.6387 56.5479 80.6387H62.1926C62.7492 80.6387 63.2006 80.1875 63.2006 79.6307V63.503C63.2006 62.9462 62.7492 62.495 62.1926 62.495ZM73.0788 91.7265C72.5222 91.7265 72.0709 92.1777 72.0709 92.7345V96.053C74.5618 94.8418 76.9358 93.4272 79.1711 91.8312C79.0362 91.7642 78.8844 91.7265 78.7236 91.7265H73.0788ZM45.6617 62.495H40.017C39.4603 62.495 39.009 62.9462 39.009 63.503V79.6307C39.009 80.1875 39.4603 80.6387 40.017 80.6387H45.6617C46.2183 80.6387 46.6697 80.1875 46.6697 79.6307V63.503C46.6697 62.9462 46.2183 62.495 45.6617 62.495ZM45.6617 91.7265H40.017C39.4603 91.7265 39.009 92.1777 39.009 92.7345V99.6561C41.4949 100.248 44.0537 100.653 46.6697 100.853V92.7345C46.6697 92.1777 46.2183 91.7265 45.6617 91.7265Z" fill="#453D83"/>
<path d="M58.7654 62.495H60.983V82.6547H58.7654V62.495ZM58.7654 100.311C59.5103 100.186 60.2498 100.044 60.983 99.8852V91.7265H58.7654V100.311ZM75.2964 94.3338C76.0483 93.8963 76.7878 93.4397 77.5139 92.9645V91.7265H75.2964V94.3338ZM75.2964 62.495V82.6547H77.5139V62.495H75.2964ZM42.2345 100.311C42.9683 100.435 43.7076 100.542 44.4521 100.633V91.7265H42.2345V100.311ZM42.2345 82.6547H44.4521V62.495H42.2345V82.6547Z" fill="#6A61B4"/>
<path d="M29.1307 53.4232C29.1307 51.7532 30.4847 50.3992 32.1547 50.3992H86.5858C88.2559 50.3992 89.6098 51.7532 89.6098 53.4232C89.6098 55.0932 88.2559 56.4471 86.5858 56.4471H32.1547C30.4847 56.4471 29.1307 55.0932 29.1307 53.4232ZM86.5858 78.6228H32.1547C30.4847 78.6228 29.1307 79.9767 29.1307 81.6467C29.1307 83.3168 30.4847 84.6707 32.1547 84.6707H86.5858C88.2559 84.6707 89.6098 83.3168 89.6098 81.6467C89.6098 79.9767 88.2559 78.6228 86.5858 78.6228Z" fill="#FFE1AA"/>
<path d="M90.6177 52.4151H28.1227C26.4527 52.4151 25.0988 51.0612 25.0988 49.3912C25.0988 47.7212 26.4527 46.3672 28.1227 46.3672H90.6177C92.2878 46.3672 93.6417 47.7212 93.6417 49.3912C93.6417 51.0612 92.2878 52.4151 90.6177 52.4151Z" fill="#FFE7C0"/>
<path d="M90.6178 52.4151H40.2186C38.5485 52.4151 37.1946 51.0612 37.1946 49.3912C37.1946 47.7212 38.5485 46.3672 40.2186 46.3672H90.6178C92.2878 46.3672 93.6417 47.7212 93.6417 49.3912C93.6417 51.0612 92.2878 52.4151 90.6178 52.4151Z" fill="#FFF5F5"/>
<path d="M84.3235 25.4802L73.4564 41.8092C72.9893 42.5109 60.6244 25.4802 60.6244 25.4802C56.8676 19.8355 57.6146 12.3242 62.4091 7.52944C67.9678 1.97082 76.9801 1.97082 82.5388 7.52944C87.3335 12.324 88.0803 19.8353 84.3235 25.4802V25.4802Z" fill="#F44545"/>
<path d="M65.7458 25.4802L75.0345 39.4378L73.4564 41.8091C72.9893 42.5109 71.9584 42.5109 71.4915 41.8091L60.6244 25.4802C56.8676 19.8355 57.6144 12.3242 62.4091 7.52943C65.8425 4.09603 70.5936 2.78343 75.0345 3.59143C72.2858 4.0916 69.6555 5.40419 67.5305 7.52943C62.7359 12.324 61.989 19.8353 65.7458 25.4802V25.4802Z" fill="#C50048"/>
<path d="M82.5057 16.9327C82.5057 22.473 78.0143 26.9644 72.474 26.9644C66.9338 26.9644 62.4424 22.473 62.4424 16.9327C62.4424 11.3924 66.9338 6.90106 72.474 6.90106C78.0143 6.90106 82.5057 11.3924 82.5057 16.9327Z" fill="#FFF5F5"/>
<path d="M72.7262 10.2395L74.4852 13.9612C74.5259 14.0473 74.6075 14.1065 74.7019 14.1186L78.785 14.6416C79.0187 14.6714 79.1122 14.9597 78.9409 15.1212L75.9447 17.9441C75.8754 18.0094 75.8443 18.1054 75.8619 18.1989L76.6263 22.2438C76.6701 22.4752 76.4249 22.6534 76.2183 22.5401L72.6077 20.5631C72.5242 20.5173 72.4232 20.5173 72.3398 20.5631L68.7292 22.5401C68.5225 22.6532 68.2774 22.4752 68.3211 22.2438L69.0856 18.1989C69.1033 18.1054 69.0721 18.0094 69.0027 17.9441L66.0066 15.1212C65.8352 14.9597 65.9288 14.6714 66.1624 14.6416L70.2456 14.1186C70.3399 14.1065 70.4216 14.0473 70.4623 13.9612L72.2212 10.2395C72.3226 10.0266 72.6254 10.0266 72.7262 10.2395V10.2395Z" fill="#FFF36C"/>
<path d="M76.6267 22.244C76.6705 22.4754 76.4253 22.6536 76.2187 22.5404L72.6081 20.5633C72.5246 20.5175 72.4236 20.5175 72.3402 20.5633L68.7296 22.5404C68.5229 22.6534 68.2778 22.4754 68.3215 22.244L69.086 18.1992C69.1037 18.1056 69.0725 18.0097 69.0031 17.9443L66.007 15.1214C65.8356 14.9599 65.9292 14.6716 66.1628 14.6418L69.2711 14.2438C70.2591 16.7073 72.6694 18.4469 75.4859 18.4469C75.627 18.4469 75.7673 18.4425 75.9062 18.4338L76.6267 22.244Z" fill="#FFC14F"/>
</g>
<defs>
<clipPath id="clip0">
<rect width="101" height="101" fill="white"/>
</clipPath>
</defs>
</svg>
