<svg width="101" height="101" viewBox="0 0 101 101" fill="none" xmlns="http://www.w3.org/2000/svg">
<path d="M2.16992 52.6699C2.16992 62.0493 4.84465 70.8028 9.46875 78.2144L9.66602 78.1578V26.8094C4.92 34.2875 2.16992 43.1572 2.16992 52.6699Z" fill="#FED2A4"/>
<path d="M91.334 26.8094V78.158L91.5312 78.2146C96.1554 70.803 98.8301 62.0495 98.8301 52.6701C98.8301 43.1572 96.08 34.2875 91.334 26.8094V26.8094Z" fill="#FED2A4"/>
<path d="M76.9107 92.9121H24.0893L24.0303 93.1094C31.6341 98.0966 40.7272 101 50.5 101C60.2727 101 69.3659 98.0966 76.9697 93.1094L76.9107 92.9121Z" fill="#FED2A4"/>
<path d="M90.7986 10.8496H10.2014L9.46875 11.0469V78.2144C13.186 84.1725 18.1638 89.2615 24.0303 93.1094H76.9697C82.8362 89.2617 87.814 84.1727 91.5312 78.2144V11.0469L90.7986 10.8496Z" fill="#F3F0FF"/>
<path d="M74.5512 59.1474L74.4767 59.0882C73.804 58.5546 73.4517 57.775 73.4844 56.893C73.5158 56.0463 73.2102 55.2452 72.6241 54.6371C72.043 54.0338 71.2338 53.688 70.4041 53.688C70.1857 53.688 69.965 53.7117 69.7486 53.7581C69.5462 53.8015 69.3428 53.8236 69.1446 53.8236C68.0884 53.8236 67.1567 53.2032 66.7135 52.2046C66.2718 51.21 66.4478 50.13 67.1838 49.316C67.8278 48.6039 68.1014 47.6531 67.9347 46.7074C67.7681 45.7617 67.1857 44.962 66.3369 44.5132C65.2833 43.9557 64.7361 42.837 64.9432 41.6633C65.1502 40.4894 66.0469 39.6254 67.2278 39.462C68.1788 39.3304 68.9996 38.7781 69.4797 37.9464C69.9599 37.115 70.0277 36.1278 69.6662 35.2384C69.6182 35.1206 69.5807 35.0013 69.5494 34.8817H23.7344C23.734 34.8934 23.7311 34.904 23.7311 34.9156V68.1731C23.7311 68.7177 24.1728 69.1594 24.7174 69.1594H42.5765L42.7737 68.9621V46.9469C42.7737 46.6086 43.0491 46.3334 43.3874 46.3334H57.6124C57.9507 46.3334 58.2261 46.6088 58.2261 46.9469V68.9625L58.4234 69.1598H74.5512V59.1474Z" fill="#FEE45A"/>
<path d="M9.46875 11.0469V78.2144C12.5074 83.0851 16.3896 87.3741 20.9102 90.8799V11.0469H9.46875Z" fill="#E2DEFF"/>
<path d="M88.5723 0H12.4277C10.7936 0 9.46875 1.32484 9.46875 2.95898V11.0469H91.5312V2.95898C91.5312 1.32484 90.2064 0 88.5723 0Z" fill="#FD4755"/>
<path d="M23.8691 0H12.4277C10.7936 0 9.46875 1.32484 9.46875 2.95898V11.0469H20.9102V2.95898C20.9102 1.32484 22.235 0 23.8691 0Z" fill="#FB2B3A"/>
<path d="M16.0771 6.70703C16.8942 6.70703 17.5566 6.04464 17.5566 5.22754C17.5566 4.41044 16.8942 3.74805 16.0771 3.74805C15.26 3.74805 14.5977 4.41044 14.5977 5.22754C14.5977 6.04464 15.26 6.70703 16.0771 6.70703Z" fill="#FE99A0"/>
<path d="M20.417 6.70703C21.2341 6.70703 21.8965 6.04464 21.8965 5.22754C21.8965 4.41044 21.2341 3.74805 20.417 3.74805C19.5999 3.74805 18.9375 4.41044 18.9375 5.22754C18.9375 6.04464 19.5999 6.70703 20.417 6.70703Z" fill="#FEE45A"/>
<path d="M24.7568 6.70703C25.5739 6.70703 26.2363 6.04464 26.2363 5.22754C26.2363 4.41044 25.5739 3.74805 24.7568 3.74805C23.9397 3.74805 23.2773 4.41044 23.2773 5.22754C23.2773 6.04464 23.9397 6.70703 24.7568 6.70703Z" fill="#68CA44"/>
<path d="M84.9229 6.70703C85.74 6.70703 86.4023 6.04464 86.4023 5.22754C86.4023 4.41044 85.74 3.74805 84.9229 3.74805C84.1058 3.74805 83.4434 4.41044 83.4434 5.22754C83.4434 6.04464 84.1058 6.70703 84.9229 6.70703Z" fill="white"/>
<path d="M29.9054 68.1734V40.1042C29.0087 41.2752 27.5978 42.0343 26.0177 42.0343C25.193 42.0343 24.4147 41.8268 23.731 41.4628V68.1734C23.731 68.718 24.1727 69.1597 24.7173 69.1597H30.8918C30.3471 69.1597 29.9054 68.7182 29.9054 68.1734Z" fill="#FED402"/>
<path d="M64.9432 41.6634C65.1501 40.4895 66.0469 39.6255 67.2277 39.4621C68.1787 39.3306 68.9996 38.7782 69.4797 37.9466C69.9598 37.1151 70.0277 36.128 69.6661 35.2385C69.6182 35.1207 69.5807 35.0014 69.5493 34.8818H22.2131L21.1212 35.0791V37.1376C21.1212 39.8306 23.3247 42.0341 26.0177 42.0341C28.7108 42.0341 30.9141 39.8306 30.9141 37.1376C30.9141 39.8306 33.1175 42.0341 35.8106 42.0341C38.5037 42.0341 40.7071 39.8306 40.7071 37.1376C40.7071 39.8306 42.9106 42.0341 45.6037 42.0341C48.2967 42.0341 50.5002 39.8306 50.5002 37.1376C50.5002 39.8306 52.7036 42.0341 55.3967 42.0341C58.0898 42.0341 60.2932 39.8306 60.2932 37.1376C60.2932 39.7352 62.3432 41.8763 64.9053 42.025C64.9104 41.9055 64.9219 41.7849 64.9432 41.6634V41.6634Z" fill="white"/>
<path d="M27.7856 64.2944V46.9471C27.7856 46.4993 28.1486 46.1361 28.5966 46.1361H37.7111C38.1589 46.1361 38.522 46.4991 38.522 46.9471V64.2944C38.522 64.7422 38.1591 65.1054 37.7111 65.1054H28.5966C28.1486 65.1052 27.7856 64.7422 27.7856 64.2944Z" fill="#26A6FE"/>
<path d="M31.873 64.295V46.9477C31.873 46.4999 32.2362 46.1367 32.6839 46.1367H28.5966C28.1488 46.1367 27.7856 46.4997 27.7856 46.9477V64.295C27.7856 64.7428 28.1486 65.106 28.5966 65.106H32.6839C32.2362 65.106 31.873 64.743 31.873 64.295Z" fill="#0593FC"/>
<path d="M72.6241 54.6371C72.043 54.0339 71.2338 53.6881 70.4041 53.6881C70.1857 53.6881 69.965 53.7117 69.7486 53.7581C69.5462 53.8015 69.3428 53.8236 69.1446 53.8236C68.0884 53.8236 67.1567 53.2032 66.7135 52.2046C66.2718 51.21 66.4477 50.13 67.1837 49.3161C67.8278 48.6039 68.1014 47.6531 67.9347 46.7074C67.8998 46.5092 67.8426 46.3192 67.7726 46.1357H63.2889C62.8411 46.1357 62.478 46.4987 62.478 46.9467V64.294C62.478 64.7418 62.8411 65.105 63.2889 65.105H72.4034C72.8512 65.105 73.2143 64.742 73.2143 64.294V55.5132C73.0707 55.1942 72.8748 54.8973 72.6241 54.6371V54.6371Z" fill="#26A6FE"/>
<path d="M66.5919 64.2942V46.9469C66.5919 46.4991 66.9551 46.1359 67.4029 46.1359H63.2891C62.8413 46.1359 62.4781 46.4989 62.4781 46.9469V64.2942C62.4781 64.742 62.8411 65.1052 63.2891 65.1052H67.4029C66.9549 65.1052 66.5919 64.7422 66.5919 64.2942Z" fill="#0593FC"/>
<path d="M58.4236 46.9471C58.4236 46.4993 58.0604 46.1361 57.6126 46.1361H43.3874C42.9396 46.1361 42.5764 46.4991 42.5764 46.9471V69.16H58.4234V62.132L57.9837 61.9347H55.45C55.1117 61.9347 54.8363 61.6593 54.8363 61.321V53.9751C54.8363 53.6367 55.1117 53.3614 55.45 53.3614H57.9835L58.4234 53.1641V46.9471H58.4236Z" fill="#26A6FE"/>
<path d="M47.4973 46.1361H43.3876C42.9398 46.1361 42.5767 46.4991 42.5767 46.9471V69.16H46.6863V46.9471C46.6863 46.4991 47.0493 46.1361 47.4973 46.1361Z" fill="#0593FC"/>
<path d="M58.4235 53.1641H55.4501C55.0023 53.1641 54.6392 53.5272 54.6392 53.975V61.321C54.6392 61.769 55.0021 62.132 55.4501 62.132H58.4235V53.1641Z" fill="#0172FB"/>
<path d="M22.0257 34.882L21.1212 35.0793V37.1378C21.1212 39.8308 23.3247 42.0343 26.0177 42.0343C28.7108 42.0343 30.9141 39.8308 30.9141 37.1378V34.8818H22.0257V34.882Z" fill="#FE99A0"/>
<path d="M40.7072 34.8821V37.138C40.7072 39.8311 42.9106 42.0345 45.6037 42.0345C48.2968 42.0345 50.5002 39.8311 50.5002 37.138V34.8821H40.7072Z" fill="#FE99A0"/>
<path d="M64.9432 41.6634C65.1501 40.4895 66.0469 39.6255 67.2277 39.4621C68.1787 39.3306 68.9996 38.7782 69.4797 37.9466C69.9598 37.1151 70.0277 36.128 69.6661 35.2385C69.6182 35.1207 69.5807 35.0014 69.5493 34.8818H60.2928V37.1378C60.2928 39.7354 62.3428 41.8765 64.9049 42.0252C64.9104 41.9055 64.9219 41.7849 64.9432 41.6634V41.6634Z" fill="#FE99A0"/>
<path d="M75.2132 24.1348C74.7885 23.1385 73.8099 22.4918 72.7267 22.4918H68.5918V27.2625C68.5918 27.8991 68.074 28.4169 67.4376 28.4169H33.5624C32.926 28.4169 32.4082 27.8991 32.4082 27.2625V22.4918H28.4242C27.3524 22.4918 26.3817 23.125 25.9501 24.106L21.1212 35.0792H69.6117C69.3389 34.2775 69.44 33.434 69.907 32.7404C70.4153 31.9848 71.2795 31.5155 72.1625 31.5155C72.6628 31.5155 73.1447 31.659 73.5953 31.9416C74.0896 32.2521 74.6557 32.4161 75.2328 32.4161C76.4288 32.4161 77.4936 31.7379 78.0079 30.6908L75.2132 24.1348Z" fill="#E41F2D"/>
<path d="M32.2109 27.2625V22.4918H28.4242C27.3524 22.4918 26.3817 23.125 25.9501 24.106L21.1212 35.0792H29.3926L32.4784 28.0669C32.3111 27.8421 32.2109 27.5643 32.2109 27.2625Z" fill="#C41926"/>
<path d="M67.4376 28.614H33.5623C32.8159 28.614 32.2109 28.009 32.2109 27.2625V19.1054C32.2109 18.3589 32.8159 17.7539 33.5623 17.7539H67.4374C68.1838 17.7539 68.7888 18.3589 68.7888 19.1054V27.2625C68.789 28.009 68.184 28.614 67.4376 28.614Z" fill="#E8B800"/>
<path d="M40.4394 27.2625V19.1054C40.4394 18.3589 41.0444 17.7539 41.7909 17.7539H33.5623C32.8159 17.7539 32.2109 18.3589 32.2109 19.1054V27.2625C32.2109 28.009 32.8159 28.614 33.5623 28.614H41.7909C41.0444 28.614 40.4394 28.009 40.4394 27.2625Z" fill="#D7AA02"/>
<path d="M60.3832 24.6633H40.6168C39.7997 24.6633 39.1373 24.0009 39.1373 23.1838C39.1373 22.3668 39.7997 21.7043 40.6168 21.7043H60.383C61.2 21.7043 61.8625 22.3668 61.8625 23.1838C61.8625 24.0009 61.2002 24.6633 60.3832 24.6633Z" fill="white"/>
<path d="M55.2344 76.1445H25.6445C24.8275 76.1445 24.165 75.4821 24.165 74.665C24.165 73.848 24.8275 73.1855 25.6445 73.1855H55.2344C56.0514 73.1855 56.7139 73.848 56.7139 74.665C56.7139 75.4821 56.0514 76.1445 55.2344 76.1445Z" fill="#8AC9FE"/>
<path d="M44.8779 81.7666H25.6445C24.8275 81.7666 24.165 81.1042 24.165 80.2871C24.165 79.47 24.8275 78.8076 25.6445 78.8076H44.8779C45.695 78.8076 46.3574 79.47 46.3574 80.2871C46.3574 81.1042 45.695 81.7666 44.8779 81.7666Z" fill="#8AC9FE"/>
<path d="M85.2778 59.6939C84.4508 59.6939 83.7061 59.3223 83.1812 58.6471C82.5916 57.8892 81.7029 57.4546 80.7428 57.4546C79.7827 57.4546 78.8939 57.8894 78.3044 58.6471C77.7793 59.3219 77.0346 59.6938 76.2077 59.6939C76.2077 59.6939 76.2075 59.6939 76.2073 59.6939C75.5218 59.6939 74.8584 59.4357 74.3544 58.9838V71.1328C74.3544 71.6816 74.9773 71.998 75.4206 71.6743L80.3475 68.076C80.583 67.9039 80.903 67.9039 81.1385 68.076L86.0654 71.6743C86.5085 71.998 87.1317 71.6814 87.1317 71.1328V58.9836C86.6271 59.4357 85.9633 59.6939 85.2778 59.6939V59.6939Z" fill="#FD4755"/>
<path d="M74.354 59.2428V71.133C74.354 71.6818 74.977 71.9982 75.4202 71.6745L78.3597 69.5277V58.8871C77.251 60.1779 75.4839 60.139 74.354 59.2428Z" fill="#FB2B3A"/>
<path d="M83.4951 30.2132C84.074 32.0079 86.1881 32.7774 87.7852 31.7747C90.1632 30.2818 93.0595 32.712 92.002 35.3131C91.2918 37.0601 92.4166 39.0085 94.2847 39.2669C97.066 39.6518 97.7225 43.3749 95.2407 44.6879C93.5738 45.5697 93.183 47.7852 94.4479 49.184C96.3312 51.2665 94.4408 54.5408 91.6956 53.9511C89.852 53.5552 88.1285 55.0012 88.1983 56.8857C88.3022 59.6916 84.7495 60.9846 83.0256 58.7684C81.8678 57.2798 79.618 57.2798 78.4603 58.7684C76.7364 60.9846 73.1836 59.6916 73.2876 56.8857C73.3574 55.0012 71.6339 53.555 69.7902 53.9511C67.0451 54.5408 65.1547 51.2665 67.038 49.184C68.3029 47.7854 67.9121 45.5697 66.2452 44.6879C63.7632 43.3749 64.4197 39.6518 67.2011 39.2669C69.069 39.0085 70.194 37.0601 69.4839 35.3131C68.4265 32.712 71.3228 30.2818 73.7006 31.7747C75.2977 32.7774 77.4118 32.0079 77.9908 30.2132C78.8522 27.5408 82.633 27.5408 83.4951 30.2132V30.2132Z" fill="#E8B800"/>
<path d="M80.7426 53.5106C85.9675 53.5106 90.2031 49.275 90.2031 44.0502C90.2031 38.8253 85.9675 34.5897 80.7426 34.5897C75.5178 34.5897 71.2822 38.8253 71.2822 44.0502C71.2822 49.275 75.5178 53.5106 80.7426 53.5106Z" fill="white"/>
<path d="M77.5254 44.0502C77.5254 39.9194 80.1737 36.4093 83.8644 35.1194C82.8867 34.7777 81.8369 34.5897 80.7426 34.5897C75.5177 34.5897 71.2822 38.8254 71.2822 44.0502C71.2822 49.2752 75.5178 53.5106 80.7426 53.5106C81.8369 53.5106 82.8867 53.3226 83.8644 52.981C80.1737 51.6911 77.5254 48.1809 77.5254 44.0502V44.0502Z" fill="#F3F0FF"/>
<path d="M80.2179 48.8962C79.8256 48.8962 79.4492 48.7404 79.1718 48.4628L75.1847 44.4757C74.6069 43.8979 74.6069 42.9611 75.1847 42.3835C75.7625 41.8057 76.6993 41.8055 77.2769 42.3835L80.2179 45.3245L84.7602 40.7823C85.3379 40.2045 86.2748 40.2045 86.8524 40.7823C87.4302 41.3601 87.4302 42.2969 86.8524 42.8745L81.264 48.4628C80.9867 48.7404 80.6105 48.8962 80.2179 48.8962Z" fill="#47A920"/>
</svg>
