<svg width="101" height="101" viewBox="0 0 101 101" fill="none" xmlns="http://www.w3.org/2000/svg">
<g clip-path="url(#clip0)">
<path d="M1.10876 51.6088C1.10876 24.3664 23.1643 2.27542 50.3931 2.21777C77.6851 2.15991 99.7436 24.0455 99.8904 51.337C99.9739 66.839 92.9151 80.6952 81.8136 89.8067C81.1219 90.3744 80.1339 90.3879 79.4086 89.8638C71.2816 83.9876 61.2951 80.5242 50.4998 80.5242C39.6668 80.5242 29.6484 84.0118 21.5061 89.9253C20.832 90.4147 19.9123 90.4004 19.2672 89.8733C8.18421 80.8159 1.10876 67.0386 1.10876 51.6088V51.6088Z" fill="#51489A"/>
<path d="M98.8389 61.7987C96.4898 72.9982 90.347 82.8021 81.8164 89.8046C81.1237 90.3731 80.1349 90.3888 79.4087 89.8638C77.6438 88.5877 75.7913 87.4255 73.8616 86.3877V51.6088H91.8037C92.3603 51.6088 92.8117 52.0602 92.8117 52.6168V60.7908C92.8117 61.3474 93.2631 61.7987 93.8197 61.7987H98.8389ZM24.494 52.3406H6.55188C5.99527 52.3406 5.54389 52.792 5.54389 53.3486V61.4871C5.54389 62.0437 5.09252 62.4951 4.53591 62.4951H2.3125C4.7744 73.4395 10.8695 83.0091 19.2644 89.8707C19.9103 90.3987 20.8314 90.4156 21.5065 89.9253C22.4764 89.2209 23.4729 88.551 24.4942 87.9174V52.3406H24.494Z" fill="#453D83"/>
<path d="M70.6596 18.1437C69.8246 18.1437 69.1477 18.8207 69.1477 19.6557V28.2236H31.8523V19.6557C31.8523 18.8207 31.1753 18.1437 30.3403 18.1437C29.5053 18.1437 28.8283 18.8207 28.8283 19.6557V48.8872C28.8283 49.7223 29.5053 50.3992 30.3403 50.3992C31.1753 50.3992 31.8523 49.7223 31.8523 48.8872V40.3194H48.988V48.8872C48.988 49.7223 49.6649 50.3992 50.5 50.3992C51.335 50.3992 52.0119 49.7223 52.0119 48.8872V40.3194H69.1477V48.8872C69.1477 49.7223 69.8246 50.3992 70.6596 50.3992C71.4946 50.3992 72.1716 49.7223 72.1716 48.8872V19.6557C72.1716 18.8207 71.4946 18.1437 70.6596 18.1437ZM52.0119 37.2954V33.7675C52.0119 32.9325 51.335 32.2555 50.5 32.2555C49.6649 32.2555 48.988 32.9325 48.988 33.7675V37.2954H31.8523V31.2475H69.1477V37.2954H52.0119Z" fill="#8078BF"/>
<path d="M51.4114 0.577182L57.7689 14.0283C57.9159 14.3392 58.2112 14.5537 58.5521 14.5974L73.3094 16.487C74.1539 16.5951 74.4922 17.6367 73.8727 18.2205L63.0445 28.4235C62.7944 28.6594 62.6815 29.0066 62.7454 29.3444L65.5084 43.9634C65.6665 44.7999 64.7807 45.4436 64.034 45.0347L50.9842 37.8893C50.6826 37.7242 50.3175 37.7242 50.0159 37.8893L36.9662 45.0347C36.2195 45.4436 35.3334 44.7999 35.4917 43.9634L38.2548 29.3444C38.3187 29.0066 38.2058 28.6594 37.9556 28.4235L27.1274 18.2205C26.5079 17.6367 26.8462 16.5953 27.6907 16.487L42.448 14.5974C42.7891 14.5537 43.0844 14.3392 43.2312 14.0283L49.5888 0.577182C49.9524 -0.192313 51.0475 -0.192313 51.4114 0.577182V0.577182Z" fill="#FFF36C"/>
<path d="M65.5083 43.9634C65.6663 44.7999 64.7805 45.4436 64.0338 45.0347L50.984 37.8893C50.6824 37.7242 50.3174 37.7242 50.0158 37.8893L36.966 45.0347C36.2193 45.4436 35.3333 44.7999 35.4915 43.9634L38.2546 29.3444C38.3185 29.0066 38.2056 28.6594 37.9554 28.4235L27.1273 18.2205C26.5078 17.6367 26.846 16.5953 27.6905 16.487L38.9245 15.0484C42.4954 23.9521 51.2066 30.2395 61.3862 30.2395C61.8965 30.2395 62.4031 30.2236 62.9055 30.1926L65.5083 43.9634Z" fill="#FFC14F"/>
<path d="M23.2054 33.9045L28.9074 39.6065L23.2054 45.3085C21.6309 46.8829 19.0779 46.8829 17.5034 45.3085C15.929 43.734 15.929 41.181 17.5034 39.6065L23.2054 33.9045ZM83.4965 39.6065L77.7946 33.9045L72.0926 39.6065L77.7946 45.3085C79.369 46.8829 81.9221 46.8829 83.4965 45.3085C85.071 43.734 85.0712 41.1812 83.4965 39.6065Z" fill="#ABA6D5"/>
<path d="M78.8637 34.261L72.4489 40.6758C71.8584 41.2663 70.901 41.2663 70.3105 40.6758C69.72 40.0853 69.72 39.128 70.3105 38.5375L76.7253 32.1227C77.3158 31.5322 78.2732 31.5322 78.8637 32.1227C79.4541 32.7131 79.4541 33.6705 78.8637 34.261V34.261ZM24.2745 32.1227C23.684 31.5322 22.7266 31.5322 22.1361 32.1227C21.5457 32.7131 21.5457 33.6705 22.1361 34.261L28.551 40.6758C29.1414 41.2663 30.0988 41.2663 30.6893 40.6758C31.2798 40.0853 31.2798 39.128 30.6893 38.5375L24.2745 32.1227ZM20.4766 40.5714C19.3632 40.5714 18.4606 41.4739 18.4606 42.5874C18.4606 43.7008 19.3632 44.6033 20.4766 44.6033C21.59 44.6033 22.4926 43.7008 22.4926 42.5874C22.4926 41.4739 21.59 40.5714 20.4766 40.5714ZM80.5234 40.5714C79.41 40.5714 78.5074 41.4739 78.5074 42.5874C78.5074 43.7008 79.41 44.6033 80.5234 44.6033C81.6368 44.6033 82.5394 43.7008 82.5394 42.5874C82.5394 41.4739 81.6368 40.5714 80.5234 40.5714Z" fill="#C1BDE0"/>
<path d="M21.9886 43.8473V48.8872C21.9886 49.7222 21.3116 50.3992 20.4766 50.3992C19.6416 50.3992 18.9646 49.7222 18.9646 48.8872V43.8473C18.9646 43.0123 19.6416 42.3353 20.4766 42.3353C21.3116 42.3353 21.9886 43.0123 21.9886 43.8473ZM80.5234 42.3353C79.6884 42.3353 79.0114 43.0123 79.0114 43.8473V48.8872C79.0114 49.7222 79.6884 50.3992 80.5234 50.3992C81.3584 50.3992 82.0354 49.7222 82.0354 48.8872V43.8473C82.0354 43.0123 81.3584 42.3353 80.5234 42.3353Z" fill="#958FCA"/>
<path d="M38.8265 28.4235L40.4383 31.4908C40.4847 31.5791 40.5566 31.6511 40.6449 31.6975L43.7122 33.3092C44.063 33.4937 44.063 33.9959 43.7122 34.1803L40.6449 35.7921C40.5566 35.8385 40.4847 35.9104 40.4383 35.9987L38.8265 39.066C38.6421 39.4168 38.1399 39.4168 37.9554 39.066L36.3437 35.9987C36.2973 35.9104 36.2253 35.8385 36.137 35.7921L33.0697 34.1803C32.7189 33.9959 32.7189 33.4937 33.0697 33.3092L36.137 31.6975C36.2253 31.6511 36.2973 31.5791 36.3437 31.4908L37.9554 28.4235C38.1399 28.0727 38.6423 28.0727 38.8265 28.4235ZM59.5999 8.16305L57.9881 11.2303C57.9417 11.3186 57.8697 11.3906 57.7814 11.437L54.7142 13.0487C54.3634 13.2332 54.3634 13.7354 54.7142 13.9198L57.7814 15.5316C57.8697 15.578 57.9417 15.6499 57.9881 15.7382L59.5999 18.8055C59.7843 19.1563 60.2865 19.1563 60.471 18.8055L62.0827 15.7382C62.1291 15.6499 62.2011 15.578 62.2894 15.5316L65.3567 13.9198C65.7074 13.7354 65.7074 13.2332 65.3567 13.0487L62.2894 11.437C62.2011 11.3906 62.1291 11.3186 62.0827 11.2303L60.471 8.16305C60.2865 7.81227 59.7841 7.81227 59.5999 8.16305Z" fill="#FFF5F5"/>
<path d="M81.9491 56.4471V89.6953C80.5966 90.8134 79.1836 91.8609 77.7155 92.832C77.4744 92.9914 77.2793 92.3824 77.0352 92.5378C75.5423 93.4881 73.9949 94.3605 72.3988 95.1493C72.172 95.2614 71.8964 96.1385 71.6676 96.2472C69.7186 97.1731 67.6992 97.9751 65.6197 98.6432C65.3506 98.7297 65.1379 98.1676 64.8668 98.2495C63.4225 98.6859 61.9505 99.0581 60.4538 99.3625C60.1798 99.4181 59.8476 100.118 59.5718 100.169C58.5739 100.354 57.5657 100.51 56.5477 100.634C54.5656 100.876 46.434 100.876 44.4519 100.634C43.434 100.51 42.4256 100.354 41.4279 100.169C41.1245 100.113 40.989 99.3978 40.6877 99.3359C39.1777 99.026 37.6929 98.6474 36.2368 98.2033C36.0062 98.1329 35.6092 98.7168 35.38 98.6432C33.3003 97.9751 31.2809 97.1731 29.3317 96.2472C29.0261 96.1021 28.895 94.9695 28.5929 94.8183C27.0192 94.0304 25.4933 93.1612 24.021 92.2157C23.8319 92.0943 23.4711 92.9561 23.284 92.8322C22.6762 92.43 22.0778 92.0149 21.4892 91.5871C20.6566 90.9813 20.4048 56.4471 22.0748 56.4471H81.9491Z" fill="#F44545"/>
<path d="M25.0988 56.4471V91.9047C25.0988 92.8143 24.086 93.3609 23.327 92.8599C21.8438 91.881 20.4165 90.8242 19.0509 89.6952V56.3616C19.0509 54.643 20.4845 53.2594 22.221 53.3411C23.8475 53.4177 25.0988 54.8188 25.0988 56.4471Z" fill="#C50048"/>
<path d="M82.9571 58.4631H18.0429C16.3729 58.4631 15.019 57.1091 15.019 55.4391C15.019 53.7691 16.3729 52.4152 18.0429 52.4152H82.9571C84.6271 52.4152 85.9811 53.7691 85.9811 55.4391C85.9811 57.1091 84.6271 58.4631 82.9571 58.4631Z" fill="#FFC14F"/>
<path d="M82.9571 58.4631H24.7174C23.0473 58.4631 21.6934 57.1091 21.6934 55.4391C21.6934 53.7691 23.0473 52.4152 24.7174 52.4152H82.9571C84.6271 52.4152 85.981 53.7691 85.981 55.4391C85.981 57.1091 84.6271 58.4631 82.9571 58.4631Z" fill="#FFCD71"/>
<path d="M56.5479 64.511V78.6227C56.5479 79.7362 55.6453 80.6387 54.5319 80.6387H46.468C45.3546 80.6387 44.4521 79.7362 44.4521 78.6227V64.511C44.4521 63.3975 45.3546 62.495 46.468 62.495H54.5319C55.6453 62.495 56.5479 63.3975 56.5479 64.511ZM37.3962 62.495H29.3323C28.2189 62.495 27.3163 63.3975 27.3163 64.511V78.6227C27.3163 79.7362 28.2189 80.6387 29.3323 80.6387H37.3962C38.5096 80.6387 39.4122 79.7362 39.4122 78.6227V64.511C39.4122 63.3975 38.5096 62.495 37.3962 62.495ZM71.6676 62.495H63.6038C62.4903 62.495 61.5878 63.3975 61.5878 64.511V78.6227C61.5878 79.7362 62.4903 80.6387 63.6038 80.6387H71.6676C72.7811 80.6387 73.6836 79.7362 73.6836 78.6227V64.511C73.6836 63.3975 72.7811 62.495 71.6676 62.495ZM54.5319 86.6866H46.468C45.3546 86.6866 44.4521 87.5892 44.4521 88.7026V100.633C46.4342 100.875 48.4526 101 50.5 101C52.5474 101 54.5658 100.875 56.5479 100.633V88.7026C56.5479 87.5892 55.6453 86.6866 54.5319 86.6866Z" fill="#FFA2C1"/>
<path d="M53.7256 66.527V78.6228C53.7256 79.1794 53.2742 79.6308 52.7176 79.6308H48.2825C47.7258 79.6308 47.2745 79.1794 47.2745 78.6228V66.527C47.2745 65.9704 47.7258 65.519 48.2825 65.519H52.7176C53.2742 65.519 53.7256 65.9704 53.7256 66.527ZM35.5818 65.519H31.1467C30.5901 65.519 30.1387 65.9704 30.1387 66.527V78.6228C30.1387 79.1794 30.5901 79.6308 31.1467 79.6308H35.5818C36.1385 79.6308 36.5898 79.1794 36.5898 78.6228V66.527C36.5898 65.9704 36.1385 65.519 35.5818 65.519ZM69.8533 65.519H65.4182C64.8616 65.519 64.4102 65.9704 64.4102 66.527V78.6228C64.4102 79.1794 64.8616 79.6308 65.4182 79.6308H69.8533C70.4099 79.6308 70.8613 79.1794 70.8613 78.6228V66.527C70.8613 65.9704 70.4099 65.519 69.8533 65.519ZM52.7176 89.7106H48.2825C47.7258 89.7106 47.2745 90.162 47.2745 90.7186V100.896C48.3407 100.965 49.4162 101 50.5 101C51.5838 101 52.6593 100.965 53.7256 100.896V90.7186C53.7256 90.162 53.2742 89.7106 52.7176 89.7106Z" fill="#453D83"/>
<path d="M34.8091 80.7732H32.7931V65.519H34.8091V80.7732ZM52.1295 65.519H50.1135V80.7732H52.1295V65.519ZM69.4501 65.519H67.4341V80.7732H69.4501V65.519ZM50.1135 100.998C50.2421 100.999 50.3709 101 50.4999 101C51.0453 101 51.5886 100.991 52.1295 100.974V89.7106H50.1135V100.998Z" fill="#6A61B4"/>
<path d="M43.2425 81.6467C43.2425 82.8867 42.4962 83.9524 41.4281 84.4191V100.169C39.3642 99.7854 37.3454 99.2739 35.3802 98.6427V84.5618C34.1017 84.209 33.1626 83.0375 33.1626 81.6467C33.1626 79.9767 34.5166 78.6227 36.1866 78.6227H40.2185C41.8886 78.6227 43.2425 79.9767 43.2425 81.6467ZM28.1227 78.6227H24.0908C22.4208 78.6227 21.0668 79.9767 21.0668 81.6467C21.0668 83.0375 22.0059 84.209 23.2844 84.5618V92.8317C25.2101 94.1056 27.2305 95.2482 29.3323 96.2467V84.4189C30.4004 83.9522 31.1467 82.8865 31.1467 81.6465C31.1467 79.9767 29.7927 78.6227 28.1227 78.6227V78.6227ZM76.506 78.6227H72.474C70.804 78.6227 69.4501 79.9767 69.4501 81.6467C69.4501 83.0375 70.3891 84.209 71.6676 84.5618V96.2467C73.7695 95.2482 75.7899 94.1056 77.7155 92.8317V84.4189C78.7836 83.9522 79.5299 82.8865 79.5299 81.6465C79.5299 79.9767 78.176 78.6227 76.506 78.6227V78.6227ZM64.4101 78.6227H60.3782C58.7082 78.6227 57.3543 79.9767 57.3543 81.6467C57.3543 83.0375 58.2933 84.209 59.5718 84.5618V100.169C61.6358 99.7854 63.6546 99.2739 65.6197 98.6427V84.4189C66.6878 83.9522 67.4341 82.8865 67.4341 81.6465C67.4341 79.9767 66.0802 78.6227 64.4101 78.6227V78.6227Z" fill="#FFC14F"/>
<path d="M67.4341 81.6467C67.4341 82.8867 66.6878 83.9524 65.6197 84.4191V93.1802C65.6197 94.5251 64.7258 95.7143 63.4278 96.0653C63.3927 96.0748 63.3576 96.0842 63.3225 96.0937C61.4285 96.6015 59.5718 95.1569 59.5718 93.196V84.5618C58.2933 84.209 57.3543 83.0375 57.3543 81.6467C57.3543 79.9767 58.7082 78.6227 60.3782 78.6227H64.4101C66.0802 78.6227 67.4341 79.9767 67.4341 81.6467ZM76.506 78.6227H72.474C70.804 78.6227 69.4501 79.9767 69.4501 81.6467C69.4501 83.0375 70.3891 84.209 71.6676 84.5618V87.999C71.6676 90.3333 74.2243 91.7769 76.2163 90.5599C76.236 90.5478 76.2558 90.5357 76.2755 90.5236C77.1676 89.9767 77.7157 89.0094 77.7157 87.9629V84.4189C78.7838 83.9522 79.5301 82.8865 79.5301 81.6465C79.5299 79.9767 78.176 78.6227 76.506 78.6227V78.6227ZM28.1227 78.6227H24.0908C22.4208 78.6227 21.0668 79.9767 21.0668 81.6467C21.0668 83.0375 22.0059 84.209 23.2844 84.5618V87.9629C23.2844 89.0092 23.8325 89.9767 24.7246 90.5236L24.7839 90.5599C26.7757 91.7769 29.3325 90.3333 29.3325 87.999V84.4191C30.4006 83.9524 31.1469 82.8867 31.1469 81.6467C31.1467 79.9767 29.7927 78.6227 28.1227 78.6227ZM40.2185 78.6227H36.1866C34.5166 78.6227 33.1626 79.9767 33.1626 81.6467C33.1626 83.0375 34.1017 84.209 35.3802 84.5618V93.18C35.3802 94.5249 36.2741 95.7141 37.5722 96.0651C37.6072 96.0746 37.6423 96.084 37.6774 96.0935C39.5714 96.6013 41.4281 95.1567 41.4281 93.1958V84.4189C42.4962 83.9522 43.2425 82.8865 43.2425 81.6465C43.2425 79.9767 41.8886 78.6227 40.2185 78.6227V78.6227Z" fill="#FFCD71"/>
<path d="M85.981 79.6307C85.981 81.3008 84.6271 82.6547 82.9571 82.6547H18.0429C16.3729 82.6547 15.0189 81.3008 15.0189 79.6307C15.0189 77.9607 16.3729 76.6068 18.0429 76.6068H82.9571C84.6271 76.6068 85.981 77.9607 85.981 79.6307ZM86.989 48.3832H14.011C12.3409 48.3832 10.987 49.7372 10.987 51.4072C10.987 53.0772 12.3409 54.4311 14.011 54.4311H86.989C88.659 54.4311 90.013 53.0772 90.013 51.4072C90.013 49.7372 88.659 48.3832 86.989 48.3832Z" fill="#FFE1AA"/>
<path d="M90.013 51.4072C90.013 53.0772 88.6591 54.4311 86.989 54.4311H27.9212C26.2511 54.4311 24.8972 53.0772 24.8972 51.4072C24.8972 49.7372 26.2511 48.3832 27.9212 48.3832H86.989C88.6591 48.3832 90.013 49.7372 90.013 51.4072ZM82.9571 76.6068H31.9531C30.2831 76.6068 28.9292 77.9607 28.9292 79.6307C28.9292 81.3008 30.2831 82.6547 31.9531 82.6547H82.9571C84.6271 82.6547 85.9811 81.3008 85.9811 79.6307C85.9811 77.9607 84.6271 76.6068 82.9571 76.6068Z" fill="#FFE7C0"/>
</g>
<defs>
<clipPath id="clip0">
<rect width="101" height="101" fill="white"/>
</clipPath>
</defs>
</svg>
