<svg width="101" height="101" viewBox="0 0 101 101" fill="none" xmlns="http://www.w3.org/2000/svg">
<g clip-path="url(#clip0)">
<path d="M67.1121 85.3807L91.85 77.7027C96.2798 70.4013 98.8305 61.8333 98.8305 52.6695C98.8305 25.9773 77.1922 4.33905 50.5 4.33905C23.8078 4.33905 2.16953 25.9773 2.16953 52.6695C2.16953 65.287 7.00648 76.7736 14.9249 85.3807H67.1121Z" fill="#4FABF7"/>
<path d="M63.618 10.5981C63.7306 8.58067 65.7597 7.10907 67.74 7.68331C68.0847 7.78332 68.4534 7.66556 68.6729 7.38169C69.7528 5.98604 71.4437 5.0871 73.345 5.0871C75.972 5.0871 78.1969 6.80311 78.9629 9.17523C79.0897 9.56818 79.4817 9.80017 79.892 9.75342C81.2855 9.59462 82.6364 10.2754 83.352 11.4499C83.5955 11.8494 84.1095 11.9742 84.5187 11.7474C85.0038 11.4785 85.5786 11.3523 86.1874 11.426C87.4335 11.5769 88.4346 12.5887 88.5731 13.8362C88.7571 15.4933 87.465 16.896 85.8451 16.896H62.692C61.1549 16.896 59.8538 15.6382 59.88 14.1013C59.9072 12.5031 61.2642 11.3424 62.7402 11.4055C63.2012 11.4256 63.5921 11.0591 63.618 10.5981Z" fill="#73C3F9"/>
<path d="M50.0644 23.3138C50.2382 20.2014 53.3684 17.9311 56.4237 18.8172C56.9553 18.9714 57.5242 18.7896 57.8629 18.3518C59.5288 16.1987 62.1375 14.8119 65.0706 14.8119C69.1234 14.8119 72.5559 17.4594 73.7377 21.1189C73.9334 21.7251 74.538 22.0829 75.171 22.0109C77.3206 21.7659 79.4047 22.8161 80.5088 24.6282C80.8844 25.2447 81.6774 25.4372 82.3087 25.0873C83.0569 24.6724 83.9438 24.4777 84.883 24.5915C86.8055 24.8243 88.3497 26.3851 88.5636 28.3098C88.8476 30.8662 86.8541 33.0304 84.3551 33.0304H48.6358C46.2647 33.0304 44.2571 31.0899 44.2976 28.7191C44.3398 26.2533 46.4332 24.4627 48.7098 24.5602C49.4215 24.5901 50.0248 24.0248 50.0644 23.3138Z" fill="#9BD8F9"/>
<path d="M40.113 48.2312C39.8991 46.3065 38.3547 44.7458 36.4324 44.513C35.493 44.3992 34.6063 44.5939 33.8581 45.0087C33.2268 45.3587 32.4338 45.1661 32.0582 44.5497C30.9541 42.7376 28.87 41.6873 26.7204 41.9323C26.0874 42.0045 25.483 41.6465 25.2871 41.0403C24.1052 37.3808 20.6728 34.7333 16.62 34.7333C13.6869 34.7333 11.0782 36.1201 9.41232 38.2733C9.07361 38.711 8.5047 38.8927 7.97306 38.7386C6.58787 38.3368 5.18807 38.5855 4.05438 39.2659C2.82838 43.5221 2.16971 48.0186 2.16971 52.6693C2.16971 52.7636 2.17247 52.8573 2.17306 52.9516H35.9049C38.4035 52.9518 40.397 50.7876 40.113 48.2312Z" fill="#73C3F9"/>
<path d="M73.3694 73.5842H73.068V95.4144C80.8992 91.2711 87.4548 85.0402 91.9929 77.4613V42.5303L61.3784 27.9571V68.7603H73.3696C74.6996 68.7603 75.7816 69.8423 75.7816 71.1723C75.7816 72.5022 74.6994 73.5842 73.3694 73.5842Z" fill="#3C58A0"/>
<path d="M61.3784 68.7603H73.3696C73.3724 68.7603 73.3751 68.7607 73.3781 68.7607V68.4587C70.9732 67.743 71.1143 65.0977 71.1143 65.0977C71.1143 65.0977 71.1143 40.7354 71.1143 37.9736C71.1143 35.2119 73.5566 35.4208 73.5566 35.4208L73.2591 33.6125L61.3786 27.9571V68.7603H61.3784Z" fill="#2A428C"/>
<path d="M14.7413 85.1834C22.2222 93.4061 32.5011 99.0358 44.0729 100.574V73.6846H44.0731H55.4253V46.3472H14.7413V85.1834Z" fill="#DAE2FE"/>
<path d="M25.3991 53.9168C25.3991 49.7362 28.7882 46.3472 32.9688 46.3472H14.7413V85.1834C17.847 88.5971 21.4365 91.562 25.3991 93.9748V53.9168Z" fill="#BEC8F7"/>
<path d="M19.3011 23.921H50.8655V46.5482H19.3011V23.921Z" fill="#DAE2FE"/>
<path d="M27.789 41.1987V29.2705C27.789 26.316 30.184 23.921 33.1385 23.921H19.3011V46.5482H33.1385C30.184 46.5482 27.789 44.1532 27.789 41.1987Z" fill="#BEC8F7"/>
<path d="M35.0833 9.23894C34.2508 9.23894 33.5758 8.56409 33.5758 7.73143V1.5075C33.5758 0.675043 34.2506 0 35.0833 0C35.9157 0 36.5908 0.674846 36.5908 1.5075V7.73143C36.5906 8.56389 35.9157 9.23894 35.0833 9.23894Z" fill="#DAE2FE"/>
<path d="M20.7705 51.5696C19.938 51.5696 19.263 52.2444 19.263 53.0771V89.5458C20.2359 90.3707 21.2412 91.1582 22.278 91.9053V53.0771C22.278 52.2446 21.6032 51.5696 20.7705 51.5696Z" fill="#A8B7EF"/>
<path d="M26.4955 51.5696C25.6631 51.5696 24.988 52.2444 24.988 53.0771V93.7217C25.97 94.3332 26.9755 94.9104 28.003 95.4519V53.0773C28.003 52.2446 27.3282 51.5696 26.4955 51.5696Z" fill="#A8B7EF"/>
<path d="M32.2208 51.5696C31.3883 51.5696 30.7133 52.2444 30.7133 53.0771V96.7758C31.701 97.2196 32.7067 97.6307 33.7283 98.0087V53.0771C33.7283 52.2446 33.0533 51.5696 32.2208 51.5696Z" fill="#A8B7EF"/>
<path d="M37.9458 51.5696C37.1134 51.5696 36.4383 52.2444 36.4383 53.0771V98.9194C37.4304 99.2207 38.4352 99.4921 39.4533 99.7302V53.0771C39.4531 52.2446 38.7783 51.5696 37.9458 51.5696Z" fill="#A8B7EF"/>
<path d="M43.6707 66.6498C42.8382 66.6498 42.1632 65.9749 42.1632 65.1422V53.0771C42.1632 52.2446 42.838 51.5696 43.6707 51.5696C44.5031 51.5696 45.1782 52.2444 45.1782 53.0771V65.1422C45.1782 65.9749 44.5033 66.6498 43.6707 66.6498Z" fill="#A8B7EF"/>
<path d="M26.4957 42.9303C25.6633 42.9303 24.9882 42.2555 24.9882 41.4228V29.419C24.9882 28.5865 25.6631 27.9115 26.4957 27.9115C27.3284 27.9115 28.0032 28.5863 28.0032 29.419V41.4228C28.003 42.2553 27.3282 42.9303 26.4957 42.9303Z" fill="#A8B7EF"/>
<path d="M32.2208 42.9303C31.3883 42.9303 30.7133 42.2555 30.7133 41.4228V29.419C30.7133 28.5865 31.3881 27.9115 32.2208 27.9115C33.0532 27.9115 33.7283 28.5863 33.7283 29.419V41.4228C33.7281 42.2553 33.0532 42.9303 32.2208 42.9303Z" fill="#A8B7EF"/>
<path d="M37.9458 42.9303C37.1134 42.9303 36.4383 42.2555 36.4383 41.4228V29.419C36.4383 28.5865 37.1132 27.9115 37.9458 27.9115C38.7783 27.9115 39.4533 28.5863 39.4533 29.419V41.4228C39.4531 42.2553 38.7783 42.9303 37.9458 42.9303Z" fill="#A8B7EF"/>
<path d="M43.6709 42.9303C42.8384 42.9303 42.1634 42.2555 42.1634 41.4228V29.419C42.1634 28.5865 42.8382 27.9115 43.6709 27.9115C44.5033 27.9115 45.1784 28.5863 45.1784 29.419V41.4228C45.1784 42.2553 44.5033 42.9303 43.6709 42.9303Z" fill="#A8B7EF"/>
<path d="M43.6707 42.9303C42.8382 42.9303 42.1632 42.2555 42.1632 41.4228V29.419C42.1632 28.5865 42.838 27.9115 43.6707 27.9115C44.5031 27.9115 45.1782 28.5863 45.1782 29.419V41.4228C45.1782 42.2553 44.5033 42.9303 43.6707 42.9303Z" fill="#A8B7EF"/>
<path d="M49.3959 66.6498C48.5634 66.6498 47.8884 65.9749 47.8884 65.1422V53.0771C47.8884 52.2446 48.5632 51.5696 49.3959 51.5696C50.2286 51.5696 50.9034 52.2444 50.9034 53.0771V65.1422C50.9034 65.9749 50.2284 66.6498 49.3959 66.6498Z" fill="#A8B7EF"/>
<path d="M26.8157 8.85071H43.3509V23.921H26.8157V8.85071Z" fill="#DAE2FE"/>
<path d="M33.7255 19.3606V13.4111C33.7255 10.8924 35.7672 8.85071 38.2859 8.85071H26.8157V23.921H38.2859C35.7672 23.921 33.7255 21.8793 33.7255 19.3606Z" fill="#BEC8F7"/>
<path d="M43.6709 73.6846V100.517C45.9023 100.833 48.1815 101 50.5 101C58.7771 101 66.5673 98.9177 73.3779 95.2507V73.6846H43.6709Z" fill="#FFC839"/>
<path d="M54.3577 94.1854V80.4985C54.3577 76.7351 57.4084 73.6844 61.1719 73.6844H43.6709V100.517C45.9023 100.833 48.1815 101 50.5 101C53.1538 101 55.7573 100.785 58.2948 100.373C55.9686 99.2903 54.3577 96.9187 54.3577 94.1854Z" fill="#FFB332"/>
<path d="M85.447 50.3434H67.7236C66.8912 50.3434 66.2161 49.6685 66.2161 48.8359C66.2161 48.0034 66.891 47.3284 67.7236 47.3284H85.447C86.2796 47.3284 86.9545 48.0032 86.9545 48.8359C86.9543 49.6685 86.2794 50.3434 85.447 50.3434Z" fill="#73C3F9"/>
<path d="M85.447 56.6951H67.7236C66.8912 56.6951 66.2161 56.0203 66.2161 55.1876C66.2161 54.3552 66.891 53.6801 67.7236 53.6801H85.447C86.2796 53.6801 86.9545 54.355 86.9545 55.1876C86.9543 56.0203 86.2794 56.6951 85.447 56.6951Z" fill="#73C3F9"/>
<path d="M85.447 63.0471H67.7236C66.8912 63.0471 66.2161 62.3722 66.2161 61.5395C66.2161 60.7069 66.891 60.032 67.7236 60.032H85.447C86.2796 60.032 86.9545 60.7069 86.9545 61.5395C86.9545 62.3722 86.2794 63.0471 85.447 63.0471Z" fill="#73C3F9"/>
<path d="M85.447 69.3988H79.6097C78.7772 69.3988 78.1022 68.724 78.1022 67.8913C78.1022 67.0586 78.777 66.3838 79.6097 66.3838H85.447C86.2796 66.3838 86.9545 67.0586 86.9545 67.8913C86.9545 68.724 86.2794 69.3988 85.447 69.3988Z" fill="#73C3F9"/>
<path d="M85.447 75.7506H79.6097C78.7772 75.7506 78.1022 75.0758 78.1022 74.2431C78.1022 73.4104 78.777 72.7356 79.6097 72.7356H85.447C86.2796 72.7356 86.9545 73.4104 86.9545 74.2431C86.9545 75.0758 86.2794 75.7506 85.447 75.7506Z" fill="#73C3F9"/>
<path d="M85.447 82.1026H78.4038C77.5713 82.1026 76.8963 81.4277 76.8963 80.5951C76.8963 79.7626 77.5711 79.0876 78.4038 79.0876H85.447C86.2796 79.0876 86.9545 79.7624 86.9545 80.5951C86.9543 81.4275 86.2794 82.1026 85.447 82.1026Z" fill="#73C3F9"/>
<path d="M85.447 85.4393H78.4036C77.5712 85.4393 76.8961 86.1141 76.8961 86.9468C76.8961 87.7794 77.571 88.4543 78.4036 88.4543H82.9855C84.0131 87.521 84.9978 86.5418 85.9417 85.5241C85.7865 85.47 85.6204 85.4393 85.447 85.4393Z" fill="#73C3F9"/>
<path d="M92.1753 44.1297C91.9579 44.1297 91.7374 44.0825 91.5281 43.9827L60.3881 29.1472C59.6364 28.7891 59.3176 27.8894 59.6756 27.1378C60.0336 26.3862 60.9334 26.0671 61.685 26.4253L92.8249 41.2609C93.5765 41.6189 93.8955 42.5186 93.5374 43.2702C93.2788 43.8125 92.7385 44.1297 92.1753 44.1297Z" fill="#4F71B6"/>
<path d="M49.9368 82.9714C49.1043 82.9714 48.4293 82.2965 48.4293 81.4638V79.6249C48.4293 78.7925 49.1041 78.1174 49.9368 78.1174C50.7693 78.1174 51.4443 78.7923 51.4443 79.6249V81.4638C51.4443 82.2963 50.7693 82.9714 49.9368 82.9714Z" fill="#FF9100"/>
<path d="M55.6618 82.9714C54.8294 82.9714 54.1543 82.2965 54.1543 81.4638V79.6249C54.1543 78.7925 54.8292 78.1174 55.6618 78.1174C56.4945 78.1174 57.1693 78.7923 57.1693 79.6249V81.4638C57.1693 82.2963 56.4945 82.9714 55.6618 82.9714Z" fill="#FF9100"/>
<path d="M61.3869 82.9714C60.5544 82.9714 59.8794 82.2965 59.8794 81.4638V79.6249C59.8794 78.7925 60.5542 78.1174 61.3869 78.1174C62.2196 78.1174 62.8944 78.7923 62.8944 79.6249V81.4638C62.8944 82.2963 62.2196 82.9714 61.3869 82.9714Z" fill="#FF9100"/>
<path d="M67.1121 82.9714C66.2797 82.9714 65.6046 82.2965 65.6046 81.4638V79.6249C65.6046 78.7925 66.2795 78.1174 67.1121 78.1174C67.9446 78.1174 68.6197 78.7923 68.6197 79.6249V81.4638C68.6195 82.2963 67.9446 82.9714 67.1121 82.9714Z" fill="#FF9100"/>
<path d="M49.9368 90.7692C49.1043 90.7692 48.4293 90.0944 48.4293 89.2617V87.4228C48.4293 86.5903 49.1041 85.9153 49.9368 85.9153C50.7693 85.9153 51.4443 86.5901 51.4443 87.4228V89.2617C51.4443 90.0944 50.7693 90.7692 49.9368 90.7692Z" fill="#FF9100"/>
<path d="M55.6618 90.7692C54.8294 90.7692 54.1543 90.0944 54.1543 89.2617V87.4228C54.1543 86.5903 54.8292 85.9153 55.6618 85.9153C56.4945 85.9153 57.1693 86.5901 57.1693 87.4228V89.2617C57.1693 90.0944 56.4945 90.7692 55.6618 90.7692Z" fill="#FF9100"/>
<path d="M61.3869 90.7692C60.5544 90.7692 59.8794 90.0944 59.8794 89.2617V87.4228C59.8794 86.5903 60.5542 85.9153 61.3869 85.9153C62.2196 85.9153 62.8944 86.5901 62.8944 87.4228V89.2617C62.8944 90.0944 62.2196 90.7692 61.3869 90.7692Z" fill="#FF9100"/>
<path d="M67.1121 90.7692C66.2797 90.7692 65.6046 90.0944 65.6046 89.2617V87.4228C65.6046 86.5903 66.2795 85.9153 67.1121 85.9153C67.9446 85.9153 68.6197 86.5901 68.6197 87.4228V89.2617C68.6195 90.0944 67.9446 90.7692 67.1121 90.7692Z" fill="#FF9100"/>
<path d="M49.9368 98.5673C49.1043 98.5673 48.4293 97.8925 48.4293 97.0598V95.2209C48.4293 94.3884 49.1041 93.7134 49.9368 93.7134C50.7693 93.7134 51.4443 94.3882 51.4443 95.2209V97.0598C51.4443 97.8923 50.7693 98.5673 49.9368 98.5673Z" fill="#FF9100"/>
<path d="M55.6618 98.5673C54.8294 98.5673 54.1543 97.8925 54.1543 97.0598V95.2209C54.1543 94.3884 54.8292 93.7134 55.6618 93.7134C56.4945 93.7134 57.1693 94.3882 57.1693 95.2209V97.0598C57.1693 97.8923 56.4945 98.5673 55.6618 98.5673Z" fill="#FF9100"/>
<path d="M61.3869 98.5673C60.5544 98.5673 59.8794 97.8925 59.8794 97.0598V95.2209C59.8794 94.3884 60.5542 93.7134 61.3869 93.7134C62.2196 93.7134 62.8944 94.3882 62.8944 95.2209V97.0598C62.8944 97.8923 62.2196 98.5673 61.3869 98.5673Z" fill="#FF9100"/>
<path d="M67.1121 93.7134C66.2797 93.7134 65.6046 94.3882 65.6046 95.2209V97.0598C65.6046 97.6046 65.8948 98.0806 66.328 98.3454C67.0772 98.0858 67.818 97.8084 68.5498 97.5135C68.595 97.3703 68.6197 97.218 68.6197 97.0598V95.2209C68.6195 94.3882 67.9446 93.7134 67.1121 93.7134Z" fill="#FF9100"/>
<path d="M73.3781 73.8856H43.6709C42.1722 73.8856 40.9575 72.6709 40.9575 71.1723C40.9575 69.6736 42.1722 68.4589 43.6709 68.4589H73.3779C74.8765 68.4589 76.0913 69.6736 76.0913 71.1723C76.0915 72.6709 74.8767 73.8856 73.3781 73.8856Z" fill="#FFDD40"/>
<path d="M55.9895 71.1723C55.9895 69.6736 57.2043 68.4589 58.7029 68.4589H43.6709C42.1722 68.4589 40.9575 69.6736 40.9575 71.1723C40.9575 72.6709 42.1722 73.8856 43.6709 73.8856H58.7029C57.2043 73.8856 55.9895 72.6709 55.9895 71.1723Z" fill="#FFC839"/>
<path d="M43.3509 10.358H26.8157C25.9832 10.358 25.3082 9.68318 25.3082 8.85052C25.3082 8.01786 25.983 7.34302 26.8157 7.34302H43.3509C44.1834 7.34302 44.8584 8.01786 44.8584 8.85052C44.8584 9.68318 44.1834 10.358 43.3509 10.358Z" fill="#E9EFFF"/>
<path d="M50.8655 25.4285H19.3011C18.4686 25.4285 17.7935 24.7537 17.7935 23.921C17.7935 23.0886 18.4684 22.4135 19.3011 22.4135H50.8655C51.698 22.4135 52.373 23.0884 52.373 23.921C52.373 24.7535 51.698 25.4285 50.8655 25.4285Z" fill="#E9EFFF"/>
<path d="M55.4251 47.8547H14.7413C13.9088 47.8547 13.2338 47.1798 13.2338 46.3472C13.2338 45.5147 13.9086 44.8397 14.7413 44.8397H55.4251C56.2576 44.8397 56.9326 45.5145 56.9326 46.3472C56.9326 47.1796 56.2578 47.8547 55.4251 47.8547Z" fill="#E9EFFF"/>
<path d="M32.2208 19.8447C31.3883 19.8447 30.7133 19.1699 30.7133 18.3372V14.1005C30.7133 13.2681 31.3881 12.593 32.2208 12.593C33.0534 12.593 33.7283 13.2679 33.7283 14.1005V18.3372C33.7283 19.1697 33.0532 19.8447 32.2208 19.8447Z" fill="#A8B7EF"/>
<path d="M37.9458 19.8447C37.1134 19.8447 36.4383 19.1699 36.4383 18.3372V14.1005C36.4383 13.2681 37.1132 12.593 37.9458 12.593C38.7785 12.593 39.4533 13.2679 39.4533 14.1005V18.3372C39.4533 19.1697 38.7783 19.8447 37.9458 19.8447Z" fill="#A8B7EF"/>
</g>
<defs>
<clipPath id="clip0">
<rect width="101" height="101" fill="white"/>
</clipPath>
</defs>
</svg>
