<svg width="101" height="101" viewBox="0 0 101 101" fill="none" xmlns="http://www.w3.org/2000/svg">
<path d="M2.16992 52.6699C2.16992 62.0493 4.84465 70.8028 9.46875 78.2144L9.66602 78.1578V26.8094C4.92 34.2875 2.16992 43.1572 2.16992 52.6699Z" fill="#B3DAFE"/>
<path d="M91.334 26.8094V78.158L91.5312 78.2146C96.1554 70.803 98.8301 62.0495 98.8301 52.6701C98.8301 43.1572 96.08 34.2875 91.334 26.8094V26.8094Z" fill="#B3DAFE"/>
<path d="M76.9107 92.9121H24.0893L24.0303 93.1094C31.6341 98.0966 40.7273 101 50.5 101C60.2728 101 69.3659 98.0966 76.9697 93.1094L76.9107 92.9121Z" fill="#B3DAFE"/>
<path d="M90.7986 10.8496H10.2014L9.46875 11.0469V78.2144C13.186 84.1725 18.1638 89.2615 24.0303 93.1094H76.9697C82.8362 89.2617 87.814 84.1727 91.5312 78.2144V11.0469L90.7986 10.8496Z" fill="#F3F0FF"/>
<path d="M9.46875 11.0469V78.2144C12.5074 83.0851 16.3896 87.3741 20.9102 90.8799V11.0469H9.46875Z" fill="#E2DEFF"/>
<path d="M88.5723 0H12.4277C10.7936 0 9.46875 1.32484 9.46875 2.95898V11.0469H91.5312V2.95898C91.5312 1.32484 90.2064 0 88.5723 0Z" fill="#26A6FE"/>
<path d="M23.8691 0H12.4277C10.7936 0 9.46875 1.32484 9.46875 2.95898V11.0469H20.9102V2.95898C20.9102 1.32484 22.235 0 23.8691 0Z" fill="#0593FC"/>
<path d="M16.0771 6.70703C16.8942 6.70703 17.5566 6.04464 17.5566 5.22754C17.5566 4.41044 16.8942 3.74805 16.0771 3.74805C15.26 3.74805 14.5977 4.41044 14.5977 5.22754C14.5977 6.04464 15.26 6.70703 16.0771 6.70703Z" fill="#FD4755"/>
<path d="M20.417 6.70703C21.2341 6.70703 21.8965 6.04464 21.8965 5.22754C21.8965 4.41044 21.2341 3.74805 20.417 3.74805C19.5999 3.74805 18.9375 4.41044 18.9375 5.22754C18.9375 6.04464 19.5999 6.70703 20.417 6.70703Z" fill="#FEE45A"/>
<path d="M24.7568 6.70703C25.5739 6.70703 26.2363 6.04464 26.2363 5.22754C26.2363 4.41044 25.5739 3.74805 24.7568 3.74805C23.9397 3.74805 23.2773 4.41044 23.2773 5.22754C23.2773 6.04464 23.9397 6.70703 24.7568 6.70703Z" fill="#68CA44"/>
<path d="M84.9229 6.70703C85.74 6.70703 86.4023 6.04464 86.4023 5.22754C86.4023 4.41044 85.74 3.74805 84.9229 3.74805C84.1058 3.74805 83.4434 4.41044 83.4434 5.22754C83.4434 6.04464 84.1058 6.70703 84.9229 6.70703Z" fill="white"/>
<path d="M61.5468 68.8457C61.5468 61.4492 67.5644 55.4316 74.9609 55.4316C75.7482 55.4316 76.5185 55.5036 77.2689 55.6344V34.916C77.2689 34.9044 77.266 34.8935 77.2656 34.8821H23.7344C23.734 34.8937 23.731 34.9044 23.731 34.916V68.1734C23.731 68.7181 24.1727 69.1597 24.7173 69.1597H42.5764L42.7737 68.9625V46.9468C42.7737 46.6085 43.049 46.3333 43.3874 46.3333H57.6124C57.9507 46.3333 58.2261 46.6087 58.2261 46.9468V68.9625L58.4233 69.1597H61.5547C61.5524 69.055 61.5468 68.951 61.5468 68.8457Z" fill="#B3DAFE"/>
<path d="M29.9054 68.1734V40.1042C29.0087 41.2752 27.5978 42.0343 26.0177 42.0343C25.193 42.0343 24.4147 41.8268 23.731 41.4628V68.1734C23.731 68.718 24.1727 69.1597 24.7173 69.1597H30.8918C30.3471 69.1597 29.9054 68.7182 29.9054 68.1734Z" fill="#8AC9FE"/>
<path d="M78.9743 34.8821H22.2131L21.1212 35.0793V37.1378C21.1212 39.8309 23.3247 42.0343 26.0177 42.0343C28.7108 42.0343 30.9141 39.8309 30.9141 37.1378C30.9141 39.8309 33.1175 42.0343 35.8106 42.0343C38.5037 42.0343 40.7071 39.8309 40.7071 37.1378C40.7071 39.8309 42.9106 42.0343 45.6037 42.0343C48.2967 42.0343 50.5002 39.8309 50.5002 37.1378C50.5002 39.8309 52.7036 42.0343 55.3967 42.0343C58.0898 42.0343 60.2932 39.8309 60.2932 37.1378C60.2932 39.8309 62.4967 42.0343 65.1898 42.0343C67.8826 42.0343 70.0859 39.8313 70.0863 37.1384C70.0865 39.8313 72.2897 42.0343 74.9828 42.0343C77.6759 42.0343 79.8793 39.8309 79.8793 37.1378V35.0791L78.9743 34.8821Z" fill="#FE99A0"/>
<path d="M27.7856 64.2951V46.9478C27.7856 46.5 28.1486 46.1368 28.5966 46.1368H37.7111C38.1589 46.1368 38.522 46.4998 38.522 46.9478V64.2951C38.522 64.7429 38.1591 65.1061 37.7111 65.1061H28.5966C28.1486 65.1059 27.7856 64.7429 27.7856 64.2951Z" fill="#26A6FE"/>
<path d="M31.873 64.2942V46.9468C31.873 46.499 32.2362 46.1359 32.6839 46.1359H28.5966C28.1488 46.1359 27.7856 46.4988 27.7856 46.9468V64.2942C27.7856 64.7419 28.1486 65.1051 28.5966 65.1051H32.6839C32.2362 65.1051 31.873 64.7421 31.873 64.2942Z" fill="#0593FC"/>
<path d="M73.2143 55.549V46.9468C73.2143 46.499 72.8514 46.1359 72.4034 46.1359H63.2889C62.8411 46.1359 62.478 46.4988 62.478 46.9468V63.9446C64.2348 59.4862 68.3113 56.1899 73.2143 55.549Z" fill="#26A6FE"/>
<path d="M66.5919 58.1154V46.947C66.5919 46.4992 66.9551 46.136 67.4029 46.136H63.2891C62.8413 46.136 62.4781 46.499 62.4781 46.947V63.4175C63.3903 61.3227 64.8142 59.504 66.5919 58.1154V58.1154Z" fill="#0593FC"/>
<path d="M58.4236 46.9471C58.4236 46.4993 58.0604 46.1361 57.6126 46.1361H43.3874C42.9396 46.1361 42.5764 46.4991 42.5764 46.9471V69.16H58.4234V62.132L57.9837 61.9347H55.45C55.1117 61.9347 54.8363 61.6593 54.8363 61.321V53.9751C54.8363 53.6367 55.1117 53.3614 55.45 53.3614H57.9835L58.4234 53.1641V46.9471H58.4236Z" fill="#26A6FE"/>
<path d="M47.4972 46.1361H43.3876C42.9398 46.1361 42.5766 46.4991 42.5766 46.9471V69.16H46.6862V46.9471C46.6862 46.4991 47.0492 46.1361 47.4972 46.1361Z" fill="#0593FC"/>
<path d="M58.4236 53.1641H55.4502C55.0024 53.1641 54.6392 53.5272 54.6392 53.975V61.321C54.6392 61.769 55.0022 62.132 55.4502 62.132H58.4236V53.1641Z" fill="#0172FB"/>
<path d="M22.0257 34.882L21.1212 35.0793V37.1378C21.1212 39.8308 23.3247 42.0343 26.0177 42.0343C28.7108 42.0343 30.9141 39.8308 30.9141 37.1378V34.8818H22.0257V34.882Z" fill="#FD8087"/>
<path d="M40.7072 34.8821V37.138C40.7072 39.8311 42.9106 42.0345 45.6037 42.0345C48.2968 42.0345 50.5002 39.8311 50.5002 37.138V34.8821H40.7072Z" fill="#FD8087"/>
<path d="M60.2928 34.8821V37.138C60.2928 39.8311 62.4963 42.0345 65.1894 42.0345C67.8824 42.0345 70.0859 39.8311 70.0859 37.138V34.8821H60.2928Z" fill="#FD8087"/>
<path d="M75.2132 24.1348C74.7885 23.1385 73.8099 22.4918 72.7267 22.4918H68.5918V27.2625C68.5918 27.8991 68.074 28.4169 67.4376 28.4169H33.5624C32.926 28.4169 32.4082 27.8991 32.4082 27.2625V22.4918H28.4242C27.3524 22.4918 26.3817 23.125 25.9501 24.106L21.1212 35.0792H79.8787L75.2132 24.1348Z" fill="#FD4755"/>
<path d="M32.2109 27.2625V22.4918H28.4242C27.3524 22.4918 26.3817 23.125 25.9501 24.106L21.1212 35.0792H29.3926L32.4784 28.0669C32.3111 27.8421 32.2109 27.5643 32.2109 27.2625Z" fill="#FB2B3A"/>
<path d="M67.4376 28.614H33.5623C32.8159 28.614 32.2109 28.009 32.2109 27.2625V19.1054C32.2109 18.3589 32.8159 17.7539 33.5623 17.7539H67.4374C68.1838 17.7539 68.7889 18.3589 68.7889 19.1054V27.2625C68.7891 28.009 68.184 28.614 67.4376 28.614Z" fill="#FED402"/>
<path d="M40.4394 27.2625V19.1054C40.4394 18.3589 41.0444 17.7539 41.7909 17.7539H33.5623C32.8159 17.7539 32.2109 18.3589 32.2109 19.1054V27.2625C32.2109 28.009 32.8159 28.614 33.5623 28.614H41.7909C41.0444 28.614 40.4394 28.009 40.4394 27.2625Z" fill="#FAC600"/>
<path d="M60.3832 24.6633H40.6168C39.7997 24.6633 39.1373 24.0009 39.1373 23.1838C39.1373 22.3668 39.7997 21.7043 40.6168 21.7043H60.383C61.2001 21.7043 61.8625 22.3668 61.8625 23.1838C61.8625 24.0009 61.2003 24.6633 60.3832 24.6633Z" fill="white"/>
<path d="M74.9609 82.457C82.4783 82.457 88.5723 76.363 88.5723 68.8457C88.5723 61.3284 82.4783 55.2344 74.9609 55.2344C67.4436 55.2344 61.3496 61.3284 61.3496 68.8457C61.3496 76.363 67.4436 82.457 74.9609 82.457Z" fill="#FED402"/>
<path d="M67.2676 68.8457C67.2676 62.345 71.826 56.9123 77.9199 55.5607C76.9669 55.3494 75.9776 55.2344 74.9609 55.2344C67.4435 55.2344 61.3496 61.3283 61.3496 68.8457C61.3496 76.3631 67.4435 82.457 74.9609 82.457C75.9776 82.457 76.9669 82.342 77.9199 82.1308C71.826 80.7791 67.2676 75.3464 67.2676 68.8457Z" fill="#FAC600"/>
<path d="M75.7666 60.0335L77.8379 64.2303C77.9687 64.4954 78.2217 64.6793 78.5143 64.7217L83.1457 65.3947C83.8825 65.5019 84.1768 66.4073 83.6436 66.9271L80.2922 70.1938C80.0806 70.4002 79.9839 70.6976 80.0338 70.989L80.8251 75.6017C80.9509 76.3355 80.1806 76.8951 79.5215 76.5487L75.3789 74.3709C75.1172 74.2334 74.8045 74.2334 74.5429 74.3709L70.4004 76.5487C69.7413 76.8951 68.971 76.3355 69.0968 75.6017L69.8881 70.989C69.938 70.6976 69.8415 70.4002 69.6296 70.1938L66.2783 66.9271C65.7451 66.4073 66.0394 65.5019 66.7762 65.3947L71.4076 64.7217C71.7001 64.6791 71.953 64.4954 72.084 64.2303L74.1553 60.0335C74.4849 59.3657 75.4369 59.3657 75.7666 60.0335V60.0335Z" fill="#E8B800"/>
<path d="M73.1201 74.2622L73.9113 69.6494C73.9612 69.358 73.8647 69.0605 73.6529 68.8542L70.3015 65.5875C70.1068 65.3977 70.0236 65.1566 70.0307 64.9217L66.7762 65.3945C66.0394 65.5017 65.7451 66.4071 66.2783 66.9269L69.6297 70.1936C69.8413 70.4 69.938 70.6974 69.8881 70.9888L69.0968 75.6015C68.971 76.3353 69.7413 76.8949 70.4004 76.5485L73.3325 75.0071C73.1629 74.8165 73.0702 74.5538 73.1201 74.2622V74.2622Z" fill="#D7AA02"/>
<path d="M55.2344 76.1445H25.6445C24.8275 76.1445 24.165 75.4821 24.165 74.665C24.165 73.848 24.8275 73.1855 25.6445 73.1855H55.2344C56.0514 73.1855 56.7139 73.848 56.7139 74.665C56.7139 75.4821 56.0514 76.1445 55.2344 76.1445Z" fill="#8AC9FE"/>
<path d="M44.8779 81.7666H25.6445C24.8275 81.7666 24.165 81.1042 24.165 80.2871C24.165 79.47 24.8275 78.8076 25.6445 78.8076H44.8779C45.695 78.8076 46.3574 79.47 46.3574 80.2871C46.3574 81.1042 45.695 81.7666 44.8779 81.7666Z" fill="#8AC9FE"/>
</svg>
