<svg width="12" height="12" viewBox="0 0 12 12" fill="none" xmlns="http://www.w3.org/2000/svg">
<path fill-rule="evenodd" clip-rule="evenodd" d="M2.60449 1.79073C2.60449 2.43556 2.08737 2.9574 1.2787 2.9574C0.501531 2.9574 -0.0155812 2.43556 0.000422267 1.79073C-0.0155812 1.11456 0.501519 0.60791 1.29419 0.60791C2.08736 0.60791 2.58898 1.11456 2.60449 1.79073ZM0.0654388 11.39V3.87906H2.52396V11.3895H0.0654388V11.39Z" fill="#0077B5"/>
<path fill-rule="evenodd" clip-rule="evenodd" d="M4.4944 6.27602C4.4944 5.33917 4.46189 4.54049 4.42938 3.87999H6.56484L6.67836 4.90897H6.72688C7.05045 4.4327 7.85912 3.71143 9.16941 3.71143C10.7868 3.71143 12 4.7252 12 6.93604V11.391H9.54148V7.22854C9.54148 6.26035 9.18591 5.60032 8.29622 5.60032C7.61657 5.60032 7.21249 6.04572 7.05095 6.47545C6.98594 6.6293 6.95393 6.84392 6.95393 7.0595V11.391H4.49539V6.27602H4.4944Z" fill="#0077B5"/>
</svg>
