<svg width="80" height="80" viewBox="0 0 80 80" fill="none" xmlns="http://www.w3.org/2000/svg">
<path d="M24.2062 58.5323C27.7395 52.7815 31.9795 47.3813 36.8555 42.5421C43.5688 35.8795 51.2715 30.4092 59.6808 26.2714C55.2995 19.749 47.8795 15.5411 39.3995 15.5411C25.9729 15.5411 15.0195 26.3415 15.0195 39.7368C15.0902 47.3111 18.6235 54.114 24.2062 58.5323Z" fill="url(#paint0_radial_8137_127960)"/>
<path d="M68.301 67.4218L63.7784 67.9127L62.577 72.331L58.0544 71.9102L56.0051 75.9779L51.6238 74.7155L48.8678 78.3624L44.7691 76.3286L41.3771 79.3443L37.7731 76.539L33.8865 78.9235L30.8478 75.487L26.5372 77.0299L24.2052 73.1726L19.6826 73.8739L18.1986 69.5959L13.6052 69.4556L12.8986 64.9671L8.44659 63.9853L8.65859 59.4968L4.48928 57.6734L5.47861 53.255L1.73329 50.6601L3.57061 46.5223L0.390625 43.2962L3.00528 39.5792L0.461292 35.8622L3.71195 32.7062L1.94529 28.4983L5.76127 26.0437L4.84261 21.5552L9.08259 19.872L9.01192 15.3134L13.4639 14.4017L14.2412 9.98334L18.8346 9.91321L20.4599 5.70526L24.9119 6.47672L27.3145 2.61944L31.5545 4.30261L34.6638 0.936261L38.5505 3.39089L42.2251 0.655731L45.5465 3.74156L49.6451 1.84798L52.3304 5.49487L56.7824 4.37275L58.6904 8.44043L63.2837 8.1599L64.3437 12.5782L68.937 13.1393L69.149 17.6278L73.5303 19.0304L72.8943 23.5189L76.9223 25.7631L75.4383 30.0412L78.9716 32.9166L76.7103 36.9142L79.6077 40.4208L76.6397 43.8573L78.7597 47.8548L75.2263 50.6601L76.569 55.0083L72.541 57.1123L73.0357 61.6008L68.725 62.9333L68.301 67.4218Z" fill="url(#paint1_linear_8137_127960)"/>
<path d="M75.5794 39.93C75.5794 59.497 59.6088 75.2767 39.9635 75.2767C20.2476 75.2767 4.34766 59.4268 4.34766 39.93C4.34766 20.3631 20.3183 4.58331 39.9635 4.58331C59.6088 4.58331 75.5794 20.4332 75.5794 39.93Z" fill="url(#paint2_linear_8137_127960)"/>
<path d="M5.125 39.9297C5.125 20.8537 20.7423 5.35446 39.9635 5.35446C59.1848 5.35446 74.8021 20.8537 74.8021 39.9297C74.8021 59.0057 59.1848 74.505 39.9635 74.505C20.6716 74.505 5.125 59.0759 5.125 39.9297Z" fill="url(#paint3_radial_8137_127960)"/>
<path d="M72.8962 39.9301C72.8962 58.0242 58.127 72.6118 39.9657 72.6118C21.7338 72.6118 7.03516 57.9541 7.03516 39.9301C7.03516 21.8359 21.8044 7.24838 39.9657 7.24838C58.127 7.24838 72.8962 21.9061 72.8962 39.9301Z" fill="url(#paint4_linear_8137_127960)"/>
<path d="M72.1154 39.9297C72.1154 57.533 57.6994 71.84 39.9622 71.84C22.2249 71.84 7.73828 57.6031 7.73828 39.9297C7.73828 22.3265 22.1542 8.0195 39.8915 8.0195C57.6288 8.0195 72.1154 22.3265 72.1154 39.9297Z" fill="url(#paint5_linear_8137_127960)"/>
<path d="M65.0488 39.9297C65.0488 53.7458 53.8129 64.8968 39.8916 64.8968C25.9703 64.8968 14.7344 53.7458 14.7344 39.9297C14.7344 26.1838 26.041 15.0327 39.8916 15.0327C53.8129 15.0327 65.0488 26.1838 65.0488 39.9297Z" fill="url(#paint6_linear_8137_127960)"/>
<path d="M64.2712 39.9297C64.2712 53.2549 53.3886 64.1254 39.8913 64.1254C26.394 64.1254 15.582 53.325 15.582 39.9297C15.582 26.6046 26.4647 15.7341 39.9619 15.7341C53.4592 15.7341 64.2712 26.6046 64.2712 39.9297Z" fill="url(#paint7_radial_8137_127960)"/>
<path d="M14.0272 25.7635L14.3099 26.3947C14.0979 26.5349 13.9566 26.6752 13.8859 26.7453C13.8859 26.8155 13.8152 26.8856 13.8859 26.9557C13.8859 27.0259 13.9566 27.096 14.0272 27.096C14.1686 27.1661 14.3806 27.096 14.5926 26.8856C14.8046 26.7453 14.9459 26.6051 15.0166 26.5349C15.1579 26.4648 15.2992 26.3947 15.4406 26.3947C15.5819 26.3947 15.7232 26.3947 15.8646 26.4648C16.1472 26.6051 16.2886 26.8155 16.4299 27.096C16.5005 27.3765 16.5006 27.7272 16.3592 28.0077C16.2179 28.2883 15.9352 28.5688 15.4406 28.7091L15.1579 28.0077C15.4406 27.9376 15.6526 27.7973 15.7232 27.5869C15.7939 27.5168 15.7939 27.4467 15.7232 27.3064C15.7232 27.1661 15.6526 27.096 15.5819 27.096C15.4406 27.0259 15.2286 27.096 14.9459 27.3765C14.8046 27.5168 14.6632 27.6571 14.5219 27.6571C14.4512 27.7272 14.3099 27.7272 14.1686 27.7272C14.0272 27.7272 13.8859 27.7272 13.7446 27.6571C13.4619 27.5168 13.3206 27.3064 13.1792 27.096C13.1086 26.8155 13.1086 26.6051 13.2499 26.2544C13.4619 26.1142 13.6739 25.9038 14.0272 25.7635Z" fill="#333333"/>
<path d="M14.8047 23.7297L15.0874 23.2388L18.6913 23.87L18.2673 24.5012L17.5607 24.3609L16.854 25.483L17.278 26.0441L16.854 26.6753L14.8047 23.7297ZM15.9354 24.0804L16.5713 24.9219L16.9953 24.2206L15.9354 24.0804Z" fill="#333333"/>
<path d="M16.1484 21.8356L17.5618 20.0823L18.1271 20.5031L17.6324 21.1343L19.7524 22.8175L19.3284 23.3786L17.2084 21.6954L16.7138 22.3266L16.1484 21.8356Z" fill="#333333"/>
<path d="M18.0547 19.4516L18.5493 18.8905L21.0227 21.2049L20.528 21.766L18.0547 19.4516Z" fill="#333333"/>
<path d="M20.8814 17.137V17.8383C20.5987 17.9085 20.4574 17.9786 20.3867 18.0487C20.316 18.1189 20.316 18.189 20.316 18.2591C20.316 18.3293 20.316 18.3994 20.3867 18.4695C20.528 18.6098 20.74 18.6098 21.0227 18.4695C21.2347 18.3994 21.4467 18.3293 21.588 18.3293C21.7294 18.3293 21.8707 18.3293 22.012 18.3994C22.1534 18.4695 22.2947 18.5397 22.3654 18.6799C22.5774 18.8903 22.648 19.1709 22.648 19.4514C22.648 19.7319 22.5067 20.0125 22.224 20.2228C21.9414 20.4332 21.588 20.5735 21.0934 20.5735V19.8722C21.376 19.8722 21.6587 19.8021 21.7294 19.7319C21.8 19.6618 21.8 19.5917 21.8707 19.4514C21.8707 19.3111 21.8707 19.241 21.8 19.1709C21.6587 19.0306 21.4467 19.0306 21.0934 19.1709C20.8814 19.241 20.74 19.3111 20.5987 19.3111C20.4574 19.3111 20.3867 19.3111 20.2454 19.241C20.104 19.1709 20.0334 19.1007 19.892 19.0306C19.68 18.8202 19.6094 18.5397 19.6094 18.3293C19.6094 18.0487 19.7507 17.8383 19.9627 17.628C20.2454 17.2773 20.528 17.137 20.8814 17.137Z" fill="#333333"/>
<path d="M21.4492 16.2958L23.0039 15.1736L23.4279 15.6646L22.5092 16.3659L22.9332 16.927L23.8519 16.2256L24.2759 16.7166L23.3572 17.4179L24.2052 18.54L23.6399 18.9608L21.4492 16.2958Z" fill="#333333"/>
<path d="M24.4844 14.1914L24.979 13.9109L27.8764 16.085L27.2404 16.4357L26.675 16.0149L25.5444 16.646L25.6857 17.3474L25.0497 17.698L24.4844 14.1914ZM25.3324 14.9629L25.4737 16.0149L26.1804 15.5941L25.3324 14.9629Z" fill="#333333"/>
<path d="M29.1503 12.0171L29.5036 12.7885C29.0796 12.7184 28.7263 12.7885 28.5143 12.8587C28.2317 12.9989 28.0903 13.1392 28.0197 13.4197C27.949 13.6301 27.949 13.9107 28.0903 14.1912C28.2317 14.4717 28.373 14.6821 28.6557 14.7523C28.8677 14.8224 29.1503 14.8224 29.433 14.6821C29.645 14.612 29.9276 14.3315 30.1396 14.0509L30.493 14.8224C30.2103 15.1029 29.9276 15.3133 29.645 15.3834C29.221 15.5938 28.797 15.5938 28.373 15.3834C27.949 15.2432 27.6663 14.8925 27.4543 14.4717C27.2423 14.0509 27.2423 13.56 27.3837 13.1392C27.525 12.7184 27.8077 12.3678 28.2317 12.2275C28.5143 12.0872 28.797 12.0171 29.1503 12.0171Z" fill="#333333"/>
<path d="M29.7852 11.5965L31.9758 10.8952L32.1878 11.5965L31.4811 11.8069L32.3291 14.3317L31.6225 14.5421L30.7745 12.0173L30.0678 12.2277L29.7852 11.5965Z" fill="#333333"/>
<path d="M32.6836 10.755L33.3903 10.6147L34.1676 13.9109L33.4609 14.0512L32.6836 10.755Z" fill="#333333"/>
<path d="M34.5922 12.0176C34.5216 11.5266 34.6629 11.1058 34.9456 10.7552C35.2282 10.4045 35.5816 10.1941 36.0762 10.124C36.5709 10.0538 36.9949 10.1941 37.3482 10.4746C37.7015 10.7552 37.9135 11.176 37.9842 11.6669C38.0549 12.1578 37.9135 12.5786 37.6309 12.9293C37.3482 13.2799 36.9949 13.4903 36.5002 13.5605C36.0056 13.6306 35.5816 13.4903 35.2282 13.2098C34.8749 12.8591 34.6629 12.5085 34.5922 12.0176ZM36.1469 10.7552C35.8642 10.7552 35.6522 10.8954 35.5109 11.1058C35.3696 11.3162 35.2989 11.5968 35.3696 11.8773C35.4402 12.1578 35.5109 12.4383 35.7229 12.5786C35.9349 12.7189 36.1469 12.789 36.4296 12.789C36.7122 12.7189 36.9242 12.6487 37.0655 12.4383C37.2069 12.2279 37.2775 11.9474 37.2069 11.6669C37.1362 11.3864 37.0655 11.1058 36.8535 10.9656C36.6415 10.8253 36.4296 10.685 36.1469 10.7552Z" fill="#333333"/>
<path d="M41.0937 9.91339H41.8004L41.7297 13.2797H41.0231L39.4684 11.1056V13.2797H38.7617L38.8324 9.91339H39.5391L41.0937 12.0875V9.91339Z" fill="#333333"/>
<path d="M48.8675 12.0175L48.3022 12.298C48.2315 12.0876 48.1609 11.9474 48.0195 11.8071C47.8782 11.6668 47.7368 11.5967 47.5955 11.5266C47.3128 11.4565 47.1008 11.5266 46.8182 11.6668C46.6062 11.8071 46.3942 12.0175 46.3235 12.298C46.2529 12.5786 46.2529 12.8591 46.3942 13.0695C46.5355 13.2799 46.7475 13.4903 47.0302 13.5604C47.1715 13.6306 47.3129 13.6306 47.4542 13.5604C47.5955 13.4903 47.7368 13.4202 47.8782 13.2098L47.1009 12.9994L47.2422 12.3682L48.7262 12.789L48.5848 13.2098C48.5142 13.4202 48.3728 13.6306 48.1608 13.841C47.9488 14.0514 47.6662 14.1916 47.4542 14.1916C47.1715 14.2617 46.8889 14.2617 46.6769 14.1916C46.2529 14.0514 45.8995 13.7708 45.6875 13.4202C45.4755 12.9994 45.4049 12.5786 45.5462 12.0876C45.6875 11.6668 45.9702 11.3162 46.3235 11.0357C46.7475 10.8253 47.1715 10.7551 47.5955 10.8954C48.3728 11.0357 48.7262 11.3863 48.8675 12.0175Z" fill="#333333"/>
<path d="M50.2799 11.6669L50.9159 11.9474L50.1386 13.841C50.0679 14.0514 50.0679 14.1916 50.1386 14.3319C50.2092 14.4722 50.2799 14.6124 50.4919 14.6826C50.7039 14.7527 50.8452 14.7527 50.9866 14.6826C51.1279 14.6124 51.2692 14.4722 51.3399 14.2618L52.1172 12.3682L52.7532 12.6487L51.9052 14.6826C51.8346 14.893 51.6932 15.0332 51.5519 15.1735C51.4106 15.3138 51.1986 15.3839 50.9159 15.454C50.7039 15.454 50.4212 15.454 50.2092 15.3138C49.7852 15.1034 49.5026 14.893 49.4319 14.5423C49.3612 14.1916 49.3612 13.9111 49.4319 13.7007L50.2799 11.6669Z" fill="#333333"/>
<path d="M54.659 13.7707L55.1537 14.0512L54.659 17.628L54.0231 17.2773L54.0937 16.576L52.9631 15.9448L52.3977 16.3656L51.7617 16.0149L54.659 13.7707ZM54.3764 14.8928L53.5284 15.524L54.235 15.9448L54.3764 14.8928Z" fill="#333333"/>
<path d="M57.1349 15.3136L57.9829 16.0149C58.2656 16.2253 58.4069 16.4357 58.4776 16.7162C58.5482 16.9968 58.4776 17.2072 58.2656 17.4877C58.1242 17.628 57.9829 17.7682 57.8416 17.8384C57.6296 17.9085 57.4176 17.9786 57.2056 17.9085L57.0642 19.5917L56.4282 19.1008L56.5696 17.5578L56.4989 17.4877L55.7216 18.5397L55.1562 18.1189L57.1349 15.3136ZM57.3469 16.2253L56.7816 16.9266L56.9229 16.9968C57.2056 17.2072 57.4882 17.2072 57.6296 16.9968C57.7002 16.9266 57.7002 16.7864 57.7002 16.6461C57.7002 16.5059 57.5589 16.4357 57.4176 16.2955L57.3469 16.2253Z" fill="#333333"/>
<path d="M60.7357 18.3292L61.1597 18.75L59.7464 22.1164L59.2517 21.6254L59.5344 20.9943L58.6157 20.0825L57.9797 20.3631L57.3438 19.7319L60.7357 18.3292ZM60.1704 19.3111L59.1811 19.7319L59.7464 20.2929L60.1704 19.3111Z" fill="#333333"/>
<path d="M64.0596 22.2569L64.4836 22.818L61.7276 24.8518L61.3036 24.2908L62.1516 21.766L60.3849 23.0985L59.9609 22.5374L62.6463 20.5036L63.0703 21.0647L62.2223 23.5894L64.0596 22.2569Z" fill="#333333"/>
<path d="M64.9776 23.5895L66.1083 25.5532L65.4723 25.9039L65.1189 25.2026L62.7869 26.5351L62.4336 25.9039L64.7656 24.5714L64.4123 23.9402L64.9776 23.5895Z" fill="#333333"/>
<path d="M66.5315 26.3241L67.3089 28.0774L66.6729 28.3579L66.1782 27.306L65.5422 27.5865L66.0369 28.6385L65.4009 28.919L64.9062 27.867L64.2702 28.1475L64.7649 29.1995L64.1289 29.4801L63.3516 27.7267L66.5315 26.3241Z" fill="#333333"/>
<path d="M67.6644 28.9891L68.3004 30.8125L67.6644 31.0229L67.311 29.9008L66.675 30.1112L67.0284 31.2333L66.3924 31.4437L66.039 30.3216L65.403 30.532L65.7564 31.6541L65.1204 31.8645L64.4844 30.0411L67.6644 28.9891Z" fill="#333333"/>
<path d="M15.6561 53.1148L15.0201 52.9044C15.0201 52.6239 15.0201 52.4836 14.9494 52.3434C14.8788 52.2732 14.8788 52.2031 14.8081 52.2031C14.7374 52.2031 14.6668 52.2031 14.5961 52.2031C14.4548 52.2732 14.3841 52.4836 14.4548 52.7642C14.4548 52.9746 14.4548 53.185 14.4548 53.3252C14.4548 53.4655 14.3841 53.6058 14.3134 53.6759C14.2428 53.8162 14.1014 53.8863 13.9601 53.9564C13.7481 54.0967 13.4654 54.0967 13.1828 54.0265C12.9001 53.9564 12.6881 53.746 12.5468 53.4655C12.4054 53.185 12.4054 52.8343 12.4761 52.3434L13.1828 52.4836C13.1121 52.7642 13.1121 52.9746 13.1828 53.1148C13.2534 53.185 13.3241 53.2551 13.3948 53.2551C13.4654 53.2551 13.6068 53.2551 13.6774 53.2551C13.8188 53.185 13.8894 52.9746 13.8188 52.5538C13.8188 52.3434 13.7481 52.2031 13.8188 52.0628C13.8188 51.9226 13.8894 51.8525 13.9601 51.7122C14.0308 51.5719 14.1721 51.5018 14.2428 51.4317C14.5254 51.2914 14.7374 51.2914 15.0201 51.3615C15.3028 51.4317 15.4441 51.6421 15.5854 51.8525C15.6561 52.4135 15.7268 52.7642 15.6561 53.1148Z" fill="#333333"/>
<path d="M16.7876 54.3773L17.0702 54.7981L15.0916 57.7437L14.6676 57.1826L15.0209 56.6216L14.3143 55.5696L13.6076 55.7098L13.1836 55.1488L16.7876 54.3773ZM16.0809 55.2189L15.0916 55.4293L15.5156 56.0605L16.0809 55.2189Z" fill="#333333"/>
<path d="M17.8462 55.9203L19.2595 57.6035L18.6942 58.0243L18.1995 57.4632L16.2209 59.0762L15.7969 58.5152L17.7755 56.9021L17.2809 56.3411L17.8462 55.9203Z" fill="#333333"/>
<path d="M19.6132 57.9541L20.1079 58.445L17.7759 60.6893L17.2812 60.1983L19.6132 57.9541Z" fill="#333333"/>
<path d="M21.7343 60.3383L21.0983 60.4084C21.0277 60.1279 20.957 59.9876 20.8863 59.9175C20.8157 59.8474 20.745 59.8474 20.6743 59.8474C20.6037 59.8474 20.533 59.9175 20.4623 59.9175C20.321 60.0578 20.3917 60.2682 20.533 60.5487C20.6037 60.7591 20.6743 60.8994 20.745 61.0396C20.745 61.1799 20.745 61.3202 20.745 61.4604C20.745 61.6007 20.6743 61.741 20.533 61.8812C20.321 62.0916 20.109 62.1618 19.8263 62.1618C19.5437 62.1618 19.261 62.0916 19.049 61.8812C18.7663 61.6708 18.625 61.3202 18.625 60.8292L19.3317 60.7591C19.3317 61.0396 19.4023 61.25 19.5437 61.3903C19.6143 61.4604 19.685 61.4604 19.8263 61.4604C19.9677 61.4604 20.0383 61.4604 20.0383 61.3903C20.1797 61.25 20.109 61.0396 19.9677 60.689C19.897 60.4786 19.8263 60.3383 19.7557 60.2682C19.7557 60.198 19.7557 60.0578 19.7557 59.9175C19.8263 59.7772 19.8263 59.7071 19.9677 59.5668C20.1797 59.3565 20.3917 59.2162 20.6743 59.2162C20.957 59.2162 21.169 59.2863 21.381 59.4967C21.593 59.7772 21.7343 60.0578 21.7343 60.3383Z" fill="#333333"/>
<path d="M22.4396 60.5485L23.9236 61.6005L23.5703 62.0914L22.6516 61.3901L22.2276 62.0212L23.1463 62.7226L22.7223 63.1434L21.8036 62.442L21.0263 63.494L20.4609 63.0732L22.4396 60.5485Z" fill="#333333"/>
<path d="M25.0529 62.4425L25.5475 62.723L24.9822 66.1595L24.4169 65.8088L24.5582 65.1075L23.4275 64.4062L22.8622 64.827L22.2969 64.4763L25.0529 62.4425ZM24.7702 63.4243L23.9222 64.0555L24.5582 64.4763L24.7702 63.4243Z" fill="#333333"/>
<path d="M29.0102 64.6865L28.6569 65.3878C28.4449 65.0371 28.2329 64.8267 27.9502 64.6865C27.7382 64.5462 27.4556 64.5462 27.2436 64.6865C27.0316 64.7566 26.8196 64.967 26.6782 65.2475C26.5369 65.5281 26.5369 65.7385 26.6076 65.9488C26.6782 66.1592 26.8196 66.3696 27.1022 66.4398C27.3142 66.58 27.5969 66.58 28.0209 66.58L27.6676 67.2814C27.2436 67.2112 26.9609 67.1411 26.7489 67.071C26.3249 66.8606 26.1129 66.58 25.9716 66.1592C25.8302 65.7385 25.9009 65.3177 26.0422 64.8969C26.2542 64.4761 26.5369 64.1955 26.9609 64.0553C27.3849 63.915 27.8089 63.915 28.2329 64.1254C28.5156 64.1955 28.7982 64.4059 29.0102 64.6865Z" fill="#333333"/>
<path d="M29.4357 64.6163L31.485 65.3877L31.2024 66.0189L30.4957 65.7384L29.6477 68.1229L29.0117 67.9125L29.8597 65.528L29.153 65.2475L29.4357 64.6163Z" fill="#333333"/>
<path d="M31.9109 65.5284L32.6175 65.7388L31.6989 68.8246L30.9922 68.6142L31.9109 65.5284Z" fill="#333333"/>
<path d="M32.8285 67.4916C32.8992 67.0007 33.1818 66.65 33.5352 66.4396C33.8885 66.1591 34.3125 66.089 34.7365 66.1591C35.2312 66.2292 35.5845 66.4396 35.7965 66.8604C36.0792 67.2111 36.1498 67.6319 36.0085 68.1228C35.9378 68.6137 35.7258 68.9644 35.3018 69.1748C34.9485 69.4553 34.5245 69.5255 34.0298 69.4553C33.5352 69.3852 33.1818 69.1748 32.9698 68.754C32.8285 68.4033 32.7578 67.9826 32.8285 67.4916ZM34.6658 66.7903C34.3832 66.7202 34.1712 66.7903 33.9592 66.9306C33.7472 67.0708 33.6058 67.3514 33.6058 67.6319C33.5352 67.9124 33.6058 68.1929 33.7472 68.4033C33.8885 68.6137 34.1005 68.754 34.3125 68.8241C34.5952 68.8943 34.8072 68.8241 35.0192 68.6839C35.2312 68.5436 35.3725 68.3332 35.3725 67.9826C35.4432 67.702 35.3725 67.4215 35.2312 67.2111C35.0898 67.0007 34.8778 66.8604 34.6658 66.7903Z" fill="#333333"/>
<path d="M39.1175 66.6505L39.8242 66.7206L39.6122 69.9467L38.9055 69.8765L37.5628 67.7024L37.4215 69.8064L36.7148 69.7363L36.9268 66.5102L37.6335 66.5803L39.0468 68.7544L39.1175 66.6505Z" fill="#333333"/>
<path d="M46.1135 66.7205L45.7602 67.2114C45.6188 67.0711 45.4775 66.9309 45.3362 66.9309C45.1948 66.8607 45.0535 66.8607 44.8415 66.8607C44.5588 66.9309 44.4175 67.001 44.2055 67.2815C44.0642 67.4919 43.9935 67.7725 44.0642 67.9829C44.1348 68.2634 44.2762 68.4738 44.4882 68.6141C44.7002 68.7543 44.9122 68.8245 45.1948 68.7543C45.3362 68.7543 45.4775 68.6842 45.6188 68.5439C45.7602 68.4738 45.8308 68.2634 45.8308 68.1231L45.0535 68.2634L44.9122 67.6322L46.3962 67.3517L46.4668 67.7725C46.5375 67.9829 46.4668 68.1933 46.3962 68.4738C46.3255 68.7543 46.1135 68.9647 45.9015 69.105C45.6895 69.2452 45.4775 69.3855 45.1948 69.3855C44.7708 69.4556 44.3468 69.3855 43.9935 69.105C43.6402 68.8245 43.4282 68.4738 43.3575 67.9829C43.2869 67.5621 43.3575 67.1413 43.6402 66.7906C43.9228 66.44 44.2762 66.2296 44.7002 66.0893C45.2655 66.0893 45.7602 66.2997 46.1135 66.7205Z" fill="#333333"/>
<path d="M46.75 65.8785L47.386 65.6681L47.9513 67.5617C48.022 67.7721 48.0927 67.8422 48.234 67.9123C48.3753 67.9825 48.5167 67.9825 48.658 67.9825C48.87 67.9123 48.9406 67.8422 49.0113 67.7019C49.082 67.5617 49.082 67.4214 49.0113 67.211L48.446 65.3174L49.082 65.1071L49.718 67.1409C49.7886 67.3513 49.7886 67.4915 49.718 67.7019C49.718 67.9123 49.5766 68.1227 49.4353 68.263C49.294 68.4033 49.082 68.5435 48.87 68.6137C48.446 68.7539 48.0927 68.6838 47.81 68.5435C47.5273 68.3331 47.386 68.1227 47.3153 67.9123L46.75 65.8785Z" fill="#333333"/>
<path d="M50.7773 64.4761L51.272 64.2657L53.816 66.7203L53.18 67.0008L52.6853 66.5099L51.5547 67.0008V67.7022L50.9187 67.9827L50.7773 64.4761ZM51.4133 65.3177V66.3697L52.12 66.0891L51.4133 65.3177Z" fill="#333333"/>
<path d="M52.8984 63.4941L53.8171 62.9331C54.0998 62.7928 54.3824 62.7227 54.5944 62.7928C54.8771 62.8629 55.0184 63.0032 55.1598 63.2837C55.2304 63.424 55.3011 63.5643 55.3011 63.7747C55.3011 63.9851 55.2304 64.1955 55.0891 64.4058L56.5731 65.1072L55.9371 65.528L54.5944 64.8266L54.5238 64.8968L55.1598 65.9488L54.5238 66.2994L52.8984 63.4941ZM53.8171 63.6344L54.2411 64.3357L54.3824 64.2656C54.6651 64.0552 54.8064 63.8448 54.6651 63.6344C54.5944 63.4941 54.5238 63.4941 54.3824 63.424C54.2411 63.424 54.0998 63.424 53.9584 63.5643L53.8171 63.6344Z" fill="#333333"/>
<path d="M56.3594 61.3204L56.7834 60.9698L59.822 62.7932L59.2567 63.214L58.6914 62.8634L57.702 63.6348L57.914 64.266L57.3487 64.6868L56.3594 61.3204ZM57.2074 62.0218L57.49 63.0036L58.126 62.5127L57.2074 62.0218Z" fill="#333333"/>
<path d="M59.7539 58.3748L60.2485 57.8839L62.5099 60.1983L62.0152 60.6892L59.4712 60.2684L60.9552 61.7412L60.4605 62.2321L58.1992 59.9177L58.6939 59.4268L61.2379 59.9177L59.7539 58.3748Z" fill="#333333"/>
<path d="M60.5273 57.6035L61.9407 55.9203L62.506 56.3411L62.0113 56.9021L63.99 58.5152L63.566 59.0762L61.5873 57.4632L61.0927 58.0243L60.5273 57.6035Z" fill="#333333"/>
<path d="M62.2266 55.4992L63.2866 54.0264L63.8519 54.3771L63.2159 55.2888L63.7106 55.7096L64.3465 54.7979L64.8412 55.1485L64.2052 56.0603L64.7705 56.4109L65.4065 55.4992L65.9719 55.8499L64.9119 57.3227L62.2266 55.4992Z" fill="#333333"/>
<path d="M63.6367 53.4655L64.5554 51.8524L65.1207 52.2031L64.5554 53.185L65.1207 53.5356L65.686 52.5538L66.2514 52.8343L65.686 53.8162L66.2514 54.1668L66.8167 53.185L67.382 53.5356L66.4634 55.1487L63.6367 53.4655Z" fill="#333333"/>
<path d="M14.2396 41.8936L12.685 40.9117L11.0596 41.8936L11.4836 40.0701L10.0703 38.8078L11.9076 38.6675L12.685 36.9142L13.3916 38.6675L15.229 38.8078L13.8863 40.0701L14.2396 41.8936Z" fill="url(#paint8_radial_8137_127960)"/>
<path d="M29.582 41.3858H31.0709C31.8546 41.3858 32.4815 41.5413 32.7949 41.9302C33.1868 42.319 33.3435 42.9412 33.3435 43.7189C33.3435 44.8855 32.8733 45.5855 32.0113 45.8965C32.9517 46.1299 33.5002 46.8298 33.5002 48.1519C33.5002 48.8519 33.3435 49.474 32.9517 49.8629C32.5599 50.2518 32.0897 50.4851 31.4628 50.4851H29.582V41.3858ZM30.8359 42.319V45.5077C31.306 45.5077 31.6195 45.3521 31.8546 45.1188C32.0897 44.8855 32.168 44.4966 32.168 43.9522C32.168 43.3301 32.0897 42.9412 31.8546 42.7079C31.6979 42.3968 31.3844 42.319 30.8359 42.319ZM30.8359 46.4409V49.6296C31.306 49.6296 31.6979 49.5518 31.8546 49.3185C32.0897 49.0852 32.168 48.6963 32.168 48.1519C32.168 47.5297 32.0897 47.0631 31.8546 46.8298C31.6979 46.5187 31.306 46.4409 30.8359 46.4409Z" fill="url(#paint9_linear_8137_127960)"/>
<path d="M39.3783 50.563H38.2029L37.8894 48.7742H35.9303L35.6169 50.563H34.4414L36.4005 41.3859H37.4192L39.3783 50.563ZM37.6543 47.7632L36.8707 43.408L36.087 47.7632H37.6543Z" fill="url(#paint10_linear_8137_127960)"/>
<path d="M44.3125 50.4075C43.9206 50.5631 43.5288 50.6409 43.2154 50.6409C42.4317 50.6409 41.8048 50.3298 41.2563 49.7854C40.7077 49.241 40.4727 47.9966 40.4727 46.2079C40.4727 44.2636 40.7077 42.9415 41.2563 42.2415C41.8048 41.5416 42.4317 41.2305 43.2154 41.2305C43.5288 41.2305 43.8423 41.3083 44.3125 41.386V42.4748C43.999 42.3971 43.7639 42.3193 43.5288 42.3193C43.0587 42.3193 42.6668 42.5526 42.275 43.0192C41.9616 43.4859 41.7265 44.4969 41.7265 45.8968C41.7265 46.7523 41.7265 47.4522 41.8048 47.9189C41.8832 48.3855 42.0399 48.7743 42.3534 49.0854C42.5885 49.3965 42.9803 49.5521 43.3721 49.5521C43.6072 49.5521 43.9206 49.4743 44.2341 49.3187V50.4075H44.3125Z" fill="url(#paint11_linear_8137_127960)"/>
<path d="M50.6628 50.563H49.2522L47.2148 45.8967V50.563H45.9609V41.3859H47.2148V45.8967L49.3306 41.3859H50.5844L48.3119 45.8189L50.6628 50.563Z" fill="url(#paint12_linear_8137_127960)"/>
<path d="M22.0581 36.7972C21.0394 38.6638 20.1774 39.5193 19.237 39.5193C18.6885 39.5193 18.375 39.2082 18.375 38.6638C18.375 38.3527 18.5317 37.9638 18.7668 37.575C19.237 36.875 19.9423 36.0195 20.8826 35.0085C21.823 33.9975 22.6067 33.2197 23.3119 32.5976L23.9388 30.4977C23.3903 31.0421 22.685 31.2755 21.823 31.431C21.7446 31.431 21.6663 31.431 21.6663 31.3532C21.6663 31.2754 21.7446 31.1977 21.823 31.1977H21.9014C22.3716 31.1199 22.8417 30.8866 23.3903 30.4977C23.8605 30.0311 24.2523 29.5645 24.4874 28.9423C24.5657 28.7868 24.7225 28.709 25.0359 28.709C25.3494 28.709 25.5061 28.7868 25.5061 28.9423L24.3307 31.6643C25.8196 30.42 26.9167 29.7978 27.5436 29.72C27.6219 29.72 27.7003 29.72 27.7787 29.72C28.6407 29.72 29.2676 30.0311 29.581 30.5755C29.8945 31.0421 29.9729 31.5865 29.9729 32.2865C29.9729 33.2197 29.6594 34.6196 29.1109 36.4084C29.0325 36.7195 28.9541 36.875 28.9541 36.875C28.9541 36.875 29.0325 36.875 29.0325 36.7972C29.1109 36.7195 29.1109 36.6417 29.2676 36.4862C29.3459 36.3306 29.581 36.0195 29.8945 35.3974C31.1483 33.2975 32.4021 31.5865 33.7343 30.1866C34.1261 29.72 34.5963 29.4867 34.9881 29.4867C35.2232 29.4867 35.4583 29.5645 35.5367 29.72C35.6934 29.8756 35.7718 30.1089 35.7718 30.2644C35.7718 30.4977 35.6934 30.731 35.6151 31.1199C35.5367 31.5088 35.2232 32.2865 34.7531 33.4531C34.2045 34.8529 33.8911 36.0973 33.8911 36.9528C33.8911 37.6527 34.1261 38.0416 34.518 38.0416C34.8314 38.0416 35.1449 37.886 35.6151 37.4972C36.3203 36.875 36.9472 36.3306 37.3391 35.7084C37.4174 35.6307 37.4174 35.6307 37.4958 35.6307C37.5742 35.7084 37.5742 35.7084 37.5742 35.7084V35.7862C37.3391 36.0973 37.0256 36.4862 36.5554 36.9528C35.8501 37.7305 35.2232 38.1971 34.7531 38.3527C34.518 38.4304 34.2829 38.4304 34.1261 38.4304C33.4209 38.4304 33.029 37.886 33.029 36.875C33.029 36.3306 33.1074 35.864 33.2641 35.3196C33.4209 34.853 33.4992 34.4641 33.5776 34.153C33.656 33.9197 33.7343 33.5308 33.8911 33.2197C34.0478 32.8309 34.1261 32.5976 34.2045 32.3643C34.518 31.6643 34.6747 31.1977 34.7531 31.0421C34.8314 30.8866 34.8314 30.731 34.8314 30.5755C34.8314 30.42 34.8314 30.3422 34.7531 30.3422C34.6747 30.2644 34.5963 30.2644 34.518 30.2644C34.4396 30.2644 34.2045 30.3422 34.0478 30.5755C33.1858 31.2754 32.2454 32.442 31.2267 33.9975C30.2079 35.5529 29.4243 36.7195 29.0325 37.6527C28.9541 37.8083 28.8758 37.9638 28.7974 37.9638C28.719 37.9638 28.6407 37.8861 28.4839 37.7305C28.4056 37.575 28.3272 37.4972 28.3272 37.4194C28.3272 37.3416 28.3272 37.3416 28.3272 37.2639C28.6407 36.5639 28.7974 35.7862 28.9541 34.9307C29.1109 34.153 29.1109 33.4531 29.1109 32.9087C29.1109 31.0421 28.719 30.1866 27.9354 30.1866C27.2301 30.1866 25.8196 31.0421 23.8605 32.8309C23.7821 33.142 23.547 33.6086 23.2336 34.3863C22.7634 35.3196 22.3716 36.0973 22.0581 36.7972ZM19.3154 38.9749C20.0206 38.9749 20.8043 38.0416 21.823 36.1751C22.3716 35.164 22.7634 34.3085 22.9985 33.6086C22.4499 34.153 21.7446 34.8529 21.0394 35.6307C20.3341 36.4084 19.8639 37.0306 19.5505 37.4194C19.1586 37.9638 19.0019 38.3527 19.0019 38.586C19.0019 38.8193 19.0803 38.9749 19.3154 38.9749Z" fill="url(#paint13_linear_8137_127960)"/>
<path d="M40.5537 36.3308C40.7888 35.9419 40.8672 35.6309 40.8672 35.3975C40.8672 35.1642 40.8672 35.0087 40.7888 34.8531C40.7105 34.6976 40.7888 34.6198 40.8672 34.5421C40.9455 34.4643 41.1023 34.3865 41.1806 34.4643C41.4157 34.5421 41.4941 34.7754 41.4941 35.1642C41.4941 35.6309 41.259 36.1753 40.7105 36.8752C40.7105 37.1863 40.8672 37.3418 41.1806 37.3418C41.4941 37.3418 41.8859 37.0308 42.5128 36.4086C42.8263 36.0975 42.983 35.8642 43.0614 35.7864C43.1397 35.7086 43.2181 35.6309 43.2181 35.7086C43.2965 35.7086 43.2965 35.7864 43.2965 35.7864C43.2965 35.8642 43.0614 36.1753 42.6696 36.6419C42.0426 37.4196 41.4941 37.8085 41.0239 37.8085C40.7105 37.8085 40.4754 37.6529 40.3186 37.4196C40.0835 37.6529 39.8484 37.8862 39.6917 38.0418C39.2999 38.4306 38.7514 38.5862 38.2812 38.5862C37.9677 38.5862 37.7326 38.5084 37.5759 38.3529C37.1841 38.1196 37.0273 37.7307 37.0273 37.1085C37.0273 36.4864 37.2624 35.7864 37.6543 35.1642C37.8894 34.7754 38.2028 34.4643 38.5163 34.1532C39.0648 33.6866 39.535 33.4532 40.0052 33.4532C40.1619 33.4532 40.2403 33.4532 40.3186 33.531C40.6321 33.6088 40.7888 33.8421 40.7888 34.1532C40.7888 34.3865 40.7105 34.5421 40.5537 34.5421C40.4754 34.5421 40.4754 34.4643 40.4754 34.3087C40.4754 34.0754 40.397 33.9977 40.1619 33.9977C39.7701 33.9977 39.2999 34.3087 38.673 35.0087C38.0461 35.7086 37.7326 36.4086 37.5759 37.1085C37.5759 37.2641 37.5759 37.3418 37.5759 37.4974C37.5759 37.6529 37.6543 37.8085 37.7326 37.964C37.811 38.1196 38.0461 38.2751 38.2812 38.2751C38.5163 38.2751 38.8297 38.1196 39.1432 37.8862C39.4566 37.6529 39.7701 37.3418 40.0052 36.953L39.9268 36.8752C39.8485 36.7197 39.9268 36.5641 40.0052 36.4864C40.3186 36.3308 40.397 36.253 40.5537 36.3308Z" fill="url(#paint14_linear_8137_127960)"/>
<path d="M47.5275 33.4526C47.7626 33.4526 47.9193 33.6081 47.9193 33.8414C47.9193 34.0747 47.7626 34.4636 47.5275 34.9302C47.2924 35.3969 47.0573 35.7857 46.9789 36.0968C46.7439 36.5634 46.6655 37.0301 46.6655 37.2634C46.6655 37.5745 46.7438 37.73 46.8222 37.8856C46.9789 38.0411 47.214 38.0411 47.5275 37.8856C47.8409 37.73 48.2328 37.4189 48.703 36.9523C49.1731 36.4857 49.6433 36.0968 49.9568 35.6302C50.0351 35.5524 50.0351 35.5524 50.1135 35.5524C50.1919 35.5524 50.1919 35.6302 50.1919 35.6302V35.708C50.0351 36.019 49.7217 36.4079 49.3299 36.7968C48.938 37.2634 48.4679 37.6522 48.076 37.8856C47.6842 38.1966 47.2924 38.2744 46.9006 38.2744C46.5088 38.2744 46.2737 38.1966 46.1169 38.0411C45.9602 37.8856 45.8818 37.6522 45.8818 37.4189C45.8818 37.1856 45.8818 36.9523 45.9602 36.719C46.0386 36.4857 46.1169 36.2524 46.1953 35.9413C46.4304 35.4746 46.5871 35.0858 46.7439 34.8525C46.9006 34.6191 46.9789 34.3858 46.9789 34.3081C46.9789 34.2303 46.9006 34.1525 46.8222 34.1525C46.6655 34.1525 46.352 34.3858 45.8035 34.7747C45.49 35.0858 44.9415 35.708 44.3146 36.5634C43.6877 37.4189 43.2958 37.8856 43.2175 37.9633C42.8257 38.1966 42.5906 38.2744 42.5122 38.2744C42.4338 38.2744 42.3555 38.2744 42.3555 38.1966C42.3555 38.1966 42.3555 38.1189 42.3555 38.0411C42.3555 37.9633 42.5122 37.6522 42.6689 37.1856C42.8257 36.6412 43.0607 36.0968 43.2958 35.3969C43.5309 34.7747 43.6877 34.3858 43.6877 34.2303C43.6877 34.0747 43.766 33.997 43.766 33.9192C43.766 33.8414 43.766 33.7637 43.8444 33.6859C43.8444 33.6081 43.9227 33.5303 44.0011 33.4526C44.0795 33.3748 44.1578 33.297 44.2362 33.297C44.3146 33.297 44.4713 33.297 44.628 33.297C44.7848 33.297 44.8631 33.3748 44.8631 33.5303C44.8631 33.6081 44.7848 33.7637 44.7064 33.997C44.5497 34.2303 44.2362 35.1635 43.6877 36.6412C44.0795 36.1746 44.5497 35.6302 45.1766 35.008C45.8035 34.3858 46.2737 33.9192 46.6655 33.6081C46.9006 33.6081 47.214 33.4526 47.5275 33.4526Z" fill="url(#paint15_linear_8137_127960)"/>
<path d="M53.403 33.3755C54.03 33.3755 54.265 33.6866 54.265 34.231C54.265 34.5421 54.1867 34.7754 54.03 34.9309C53.7949 35.3198 53.3247 35.7086 52.6978 36.0197C52.0709 36.3308 51.6007 36.4864 51.1305 36.4864C50.9738 36.4864 50.8954 36.4864 50.8954 36.3308C50.8954 36.253 50.8954 36.253 50.9738 36.253H51.0521C51.2872 36.253 51.6007 36.0975 51.9925 35.8642C52.6978 35.4753 53.2463 35.0865 53.6381 34.6198C53.7949 34.3865 53.8732 34.231 53.8732 34.0754C53.8732 33.9199 53.7949 33.8421 53.6381 33.8421C53.4814 33.8421 53.3247 33.9199 53.0896 33.9977C52.541 34.231 52.0709 34.6198 51.4439 35.242C50.8954 35.8642 50.5036 36.4086 50.3469 36.953C50.2685 37.1085 50.2685 37.2641 50.2685 37.4974C50.2685 37.6529 50.3469 37.8085 50.5036 37.964C50.6603 38.1196 50.8954 38.1973 51.1305 38.1973C51.4439 38.1973 51.8358 38.1196 52.2276 37.964C53.4814 37.4974 54.4218 36.7197 55.0487 35.7086C55.127 35.6309 55.2054 35.6309 55.2054 35.6309C55.2838 35.6309 55.2838 35.7086 55.2838 35.7086C55.2838 35.7086 55.2838 35.7864 55.2054 35.7864C54.892 36.3308 54.4218 36.7974 53.9516 37.2641C53.0112 38.1196 51.9925 38.5084 51.1305 38.5084C50.3469 38.5084 49.7983 38.2751 49.4849 37.8085C49.3281 37.6529 49.3281 37.4196 49.3281 37.1085C49.3281 36.8752 49.4065 36.5641 49.5632 36.1753C49.7983 35.5531 50.4252 34.9309 51.2872 34.231C52.2276 33.6866 52.9329 33.3755 53.403 33.3755Z" fill="url(#paint16_linear_8137_127960)"/>
<path d="M54.4216 44.3408C54.3432 44.3408 54.1865 44.3408 54.1081 44.263C53.5595 44.1075 53.2461 43.7964 53.2461 43.4075C53.2461 42.9409 53.5595 42.3965 54.1081 41.7743C54.6566 41.0744 55.9105 40.1411 57.7128 38.9745C58.7316 36.8747 59.3585 35.397 59.6719 34.6193C59.5152 34.7749 59.2801 35.086 58.8883 35.6304C58.4965 36.097 58.183 36.5636 57.8696 36.9525C57.5561 37.3413 57.2427 37.6524 56.7725 37.9635C56.3807 38.2746 55.9888 38.4301 55.597 38.4301C55.2836 38.4301 54.9701 38.3524 54.8134 38.1968C54.6566 38.0413 54.4999 37.8857 54.4999 37.7302C54.4999 37.5747 54.4999 37.4191 54.4999 37.2636C54.4999 36.8747 54.5783 36.4859 54.8134 36.097C55.1268 35.397 55.597 34.8526 56.1456 34.386C56.3806 34.1527 56.5374 34.0749 56.6941 34.0749C56.8508 34.0749 57.0076 34.1527 57.1643 34.2305C57.321 34.386 57.321 34.5416 57.321 34.6193C56.9292 34.8526 56.459 35.3193 55.9105 36.0192C55.597 36.4081 55.4403 36.8747 55.2836 37.4191C55.2836 37.4969 55.2836 37.5747 55.2836 37.7302C55.2836 37.808 55.3619 37.9635 55.4403 38.0413C55.5186 38.1191 55.597 38.1191 55.7537 38.1191C56.0672 38.1191 56.459 37.9635 56.8508 37.5747C57.2427 37.1858 57.5561 36.8747 57.9479 36.4081C58.2614 36.0192 58.6532 35.5526 59.1234 35.0082C59.5936 34.4638 59.8287 34.0749 59.9854 33.9194C60.1421 33.7638 60.2988 33.6861 60.3772 33.6861C60.5339 33.6861 60.769 33.7638 60.9258 33.8416C61.0825 33.9194 61.1608 33.9972 61.1608 34.0749C61.1608 34.1527 60.8474 34.7749 60.2988 35.9414C59.7503 37.108 59.3585 37.9635 59.1234 38.5079C59.3585 38.3524 59.8287 38.0413 60.4556 37.4969C61.0825 36.9525 61.631 36.4081 62.0229 35.8637C62.1012 35.7081 62.1796 35.7081 62.2579 35.8637V35.9414C62.2579 35.9414 62.2579 36.097 62.1796 36.1748C61.8661 36.6414 61.3176 37.1858 60.5339 37.8857C59.8287 38.5857 59.2018 39.0523 58.7316 39.2856C57.7912 41.1522 57.1643 42.3965 56.8508 42.8631C56.0672 43.7186 55.2836 44.3408 54.4216 44.3408ZM57.4777 39.5189C56.1456 40.53 55.2052 41.2299 54.6566 41.8521C54.1081 42.3965 53.7946 42.9409 53.7946 43.3298C53.7946 43.7186 53.9514 43.9519 54.1865 43.9519C54.4216 43.9519 54.6566 43.8742 54.9701 43.6409C55.2836 43.4075 55.5186 43.0964 55.7537 42.7854C55.9888 42.3965 56.2239 42.0854 56.3807 41.8521C56.5374 41.6188 56.6941 41.2299 56.9292 40.6855C57.2427 40.0633 57.3994 39.6745 57.4777 39.5189Z" fill="url(#paint17_linear_8137_127960)"/>
<path d="M50.8171 53.4418H27.543V53.9084H50.8171V53.4418Z" fill="url(#paint18_linear_8137_127960)"/>
<defs>
<radialGradient id="paint0_radial_8137_127960" cx="0" cy="0" r="1" gradientUnits="userSpaceOnUse" gradientTransform="translate(52.7218 -3.02512) scale(66.0243 65.5254)">
<stop stop-color="#FFC94C"/>
<stop offset="0.1398" stop-color="#A2621E"/>
<stop offset="0.1632" stop-color="#965B1C"/>
<stop offset="0.25" stop-color="#6E4314"/>
<stop offset="0.3426" stop-color="#4C2E0E"/>
<stop offset="0.4407" stop-color="#301D09"/>
<stop offset="0.5462" stop-color="#1B1005"/>
<stop offset="0.6626" stop-color="#0C0702"/>
<stop offset="0.7983" stop-color="#030201"/>
<stop offset="1"/>
</radialGradient>
<linearGradient id="paint1_linear_8137_127960" x1="0.375714" y1="40.0062" x2="79.5835" y2="40.0062" gradientUnits="userSpaceOnUse">
<stop stop-color="#EEBE47"/>
<stop offset="0.1204" stop-color="#F8DB77"/>
<stop offset="0.2097" stop-color="#FFEE96"/>
<stop offset="0.4462" stop-color="#A2621E"/>
<stop offset="0.6667" stop-color="#EEA54C"/>
<stop offset="1" stop-color="#EEBE47"/>
</linearGradient>
<linearGradient id="paint2_linear_8137_127960" x1="12.2267" y1="12.4829" x2="80.4674" y2="81.2433" gradientUnits="userSpaceOnUse">
<stop stop-color="#EEBE47"/>
<stop offset="0.1204" stop-color="#F8DB77"/>
<stop offset="0.2097" stop-color="#FFEE96"/>
<stop offset="0.4462" stop-color="#A2621E"/>
<stop offset="0.6667" stop-color="#EEA54C"/>
<stop offset="1" stop-color="#EEBE47"/>
</linearGradient>
<radialGradient id="paint3_radial_8137_127960" cx="0" cy="0" r="1" gradientUnits="userSpaceOnUse" gradientTransform="translate(39.9148 39.9616) rotate(180) scale(34.822 34.5589)">
<stop offset="0.1398" stop-color="#363636"/>
<stop offset="1"/>
</radialGradient>
<linearGradient id="paint4_linear_8137_127960" x1="64.7673" y1="64.6247" x2="8.23972" y2="7.66666" gradientUnits="userSpaceOnUse">
<stop stop-color="#EEBE47"/>
<stop offset="0.1204" stop-color="#F8DB77"/>
<stop offset="0.2097" stop-color="#FFEE96"/>
<stop offset="0.4462" stop-color="#A2621E"/>
<stop offset="0.6667" stop-color="#EEA54C"/>
<stop offset="1" stop-color="#EEBE47"/>
</linearGradient>
<linearGradient id="paint5_linear_8137_127960" x1="15.3428" y1="19.6817" x2="63.5975" y2="60.1191" gradientUnits="userSpaceOnUse">
<stop stop-color="#EEBE47"/>
<stop offset="0.1204" stop-color="#F8DB77"/>
<stop offset="0.2097" stop-color="#FFEE96"/>
<stop offset="0.4462" stop-color="#A2621E"/>
<stop offset="0.6667" stop-color="#EEA54C"/>
<stop offset="1" stop-color="#EEBE47"/>
</linearGradient>
<linearGradient id="paint6_linear_8137_127960" x1="58.7144" y1="58.6201" x2="17.4884" y2="17.0803" gradientUnits="userSpaceOnUse">
<stop stop-color="#EEBE47"/>
<stop offset="0.1204" stop-color="#F8DB77"/>
<stop offset="0.2097" stop-color="#FFEE96"/>
<stop offset="0.4462" stop-color="#A2621E"/>
<stop offset="0.6667" stop-color="#EEA54C"/>
<stop offset="1" stop-color="#EEBE47"/>
</linearGradient>
<radialGradient id="paint7_radial_8137_127960" cx="0" cy="0" r="1" gradientUnits="userSpaceOnUse" gradientTransform="translate(15.0563 -5.3865) scale(70.6959 70.1617)">
<stop offset="0.1398" stop-color="#363636"/>
<stop offset="1"/>
</radialGradient>
<radialGradient id="paint8_radial_8137_127960" cx="0" cy="0" r="1" gradientUnits="userSpaceOnUse" gradientTransform="translate(41.2715 76.9441) scale(103.484 102.702)">
<stop offset="0.1398" stop-color="#363636"/>
<stop offset="1"/>
</radialGradient>
<linearGradient id="paint9_linear_8137_127960" x1="18.3274" y1="38.7736" x2="65.0954" y2="66.1816" gradientUnits="userSpaceOnUse">
<stop stop-color="#EEBE47"/>
<stop offset="0.1204" stop-color="#F8DB77"/>
<stop offset="0.2097" stop-color="#FFEE96"/>
<stop offset="0.4462" stop-color="#A2621E"/>
<stop offset="0.6667" stop-color="#EEA54C"/>
<stop offset="1" stop-color="#EEBE47"/>
</linearGradient>
<linearGradient id="paint10_linear_8137_127960" x1="19.6202" y1="36.5699" x2="66.3884" y2="63.978" gradientUnits="userSpaceOnUse">
<stop stop-color="#EEBE47"/>
<stop offset="0.1204" stop-color="#F8DB77"/>
<stop offset="0.2097" stop-color="#FFEE96"/>
<stop offset="0.4462" stop-color="#A2621E"/>
<stop offset="0.6667" stop-color="#EEA54C"/>
<stop offset="1" stop-color="#EEBE47"/>
</linearGradient>
<linearGradient id="paint11_linear_8137_127960" x1="21.5015" y1="33.3525" x2="68.2723" y2="60.7621" gradientUnits="userSpaceOnUse">
<stop stop-color="#EEBE47"/>
<stop offset="0.1204" stop-color="#F8DB77"/>
<stop offset="0.2097" stop-color="#FFEE96"/>
<stop offset="0.4462" stop-color="#A2621E"/>
<stop offset="0.6667" stop-color="#EEA54C"/>
<stop offset="1" stop-color="#EEBE47"/>
</linearGradient>
<linearGradient id="paint12_linear_8137_127960" x1="22.7615" y1="31.2094" x2="69.5304" y2="58.618" gradientUnits="userSpaceOnUse">
<stop stop-color="#EEBE47"/>
<stop offset="0.1204" stop-color="#F8DB77"/>
<stop offset="0.2097" stop-color="#FFEE96"/>
<stop offset="0.4462" stop-color="#A2621E"/>
<stop offset="0.6667" stop-color="#EEA54C"/>
<stop offset="1" stop-color="#EEBE47"/>
</linearGradient>
<linearGradient id="paint13_linear_8137_127960" x1="20.4094" y1="30.6127" x2="72.4303" y2="61.0991" gradientUnits="userSpaceOnUse">
<stop stop-color="#EEBE47"/>
<stop offset="0.1204" stop-color="#F8DB77"/>
<stop offset="0.2097" stop-color="#FFEE96"/>
<stop offset="0.4462" stop-color="#A2621E"/>
<stop offset="0.6667" stop-color="#EEA54C"/>
<stop offset="1" stop-color="#EEBE47"/>
</linearGradient>
<linearGradient id="paint14_linear_8137_127960" x1="22.8486" y1="26.4596" x2="74.8605" y2="56.9408" gradientUnits="userSpaceOnUse">
<stop stop-color="#EEBE47"/>
<stop offset="0.1204" stop-color="#F8DB77"/>
<stop offset="0.2097" stop-color="#FFEE96"/>
<stop offset="0.4462" stop-color="#A2621E"/>
<stop offset="0.6667" stop-color="#EEA54C"/>
<stop offset="1" stop-color="#EEBE47"/>
</linearGradient>
<linearGradient id="paint15_linear_8137_127960" x1="24.2558" y1="24.0557" x2="76.2691" y2="54.5377" gradientUnits="userSpaceOnUse">
<stop stop-color="#EEBE47"/>
<stop offset="0.1204" stop-color="#F8DB77"/>
<stop offset="0.2097" stop-color="#FFEE96"/>
<stop offset="0.4462" stop-color="#A2621E"/>
<stop offset="0.6667" stop-color="#EEA54C"/>
<stop offset="1" stop-color="#EEBE47"/>
</linearGradient>
<linearGradient id="paint16_linear_8137_127960" x1="26.0824" y1="20.9247" x2="78.1072" y2="51.4134" gradientUnits="userSpaceOnUse">
<stop stop-color="#EEBE47"/>
<stop offset="0.1204" stop-color="#F8DB77"/>
<stop offset="0.2097" stop-color="#FFEE96"/>
<stop offset="0.4462" stop-color="#A2621E"/>
<stop offset="0.6667" stop-color="#EEA54C"/>
<stop offset="1" stop-color="#EEBE47"/>
</linearGradient>
<linearGradient id="paint17_linear_8137_127960" x1="26.1245" y1="20.8574" x2="78.1447" y2="51.3435" gradientUnits="userSpaceOnUse">
<stop stop-color="#EEBE47"/>
<stop offset="0.1204" stop-color="#F8DB77"/>
<stop offset="0.2097" stop-color="#FFEE96"/>
<stop offset="0.4462" stop-color="#A2621E"/>
<stop offset="0.6667" stop-color="#EEA54C"/>
<stop offset="1" stop-color="#EEBE47"/>
</linearGradient>
<linearGradient id="paint18_linear_8137_127960" x1="26.571" y1="46.38" x2="75.3458" y2="74.9642" gradientUnits="userSpaceOnUse">
<stop stop-color="#EEBE47"/>
<stop offset="0.1204" stop-color="#F8DB77"/>
<stop offset="0.2097" stop-color="#FFEE96"/>
<stop offset="0.4462" stop-color="#A2621E"/>
<stop offset="0.6667" stop-color="#EEA54C"/>
<stop offset="1" stop-color="#EEBE47"/>
</linearGradient>
</defs>
</svg>
