<svg width="98" height="25" viewBox="0 0 98 25" fill="none" xmlns="http://www.w3.org/2000/svg">
<path d="M25.6825 8.50781H35.5775V10.354H31.6868V20.7321H29.5473V10.354H25.6738V8.50781H25.6825ZM35.1548 11.8809H36.9837V13.589H37.0182C37.0786 13.3475 37.1907 13.1146 37.3546 12.8903C37.5185 12.666 37.717 12.4503 37.9499 12.2691C38.1828 12.0793 38.4416 11.9327 38.7263 11.8119C39.011 11.6998 39.3043 11.6394 39.5976 11.6394C39.8219 11.6394 39.9858 11.648 40.0721 11.6566C40.1584 11.6653 40.2446 11.6825 40.3395 11.6911V13.5718C40.2015 13.5459 40.0635 13.5287 39.9168 13.5114C39.7702 13.4942 39.6321 13.4855 39.4941 13.4855C39.1663 13.4855 38.8557 13.5545 38.5624 13.6839C38.2691 13.8133 38.0189 14.0118 37.8032 14.2619C37.5876 14.5208 37.415 14.8313 37.2856 15.2109C37.1562 15.5905 37.0958 16.0218 37.0958 16.5136V20.7235H35.1461V11.8809H35.1548ZM49.3029 20.7321H47.3877V19.4985H47.3532C47.1116 19.9471 46.7579 20.3008 46.2835 20.5682C45.809 20.8356 45.3259 20.9737 44.8341 20.9737C43.6695 20.9737 42.8241 20.689 42.3065 20.111C41.7889 19.533 41.53 18.6617 41.53 17.497V11.8809H43.4797V17.3072C43.4797 18.0837 43.6264 18.6358 43.9283 18.955C44.2216 19.2742 44.6444 19.4381 45.1792 19.4381C45.5933 19.4381 45.9298 19.3777 46.2058 19.2483C46.4819 19.1189 46.7062 18.955 46.8701 18.7393C47.0426 18.5323 47.1634 18.2734 47.241 17.9801C47.3187 17.6868 47.3532 17.3676 47.3532 17.0225V11.8896H49.3029V20.7321ZM52.6242 17.8939C52.6846 18.4632 52.9003 18.8601 53.2712 19.093C53.6508 19.3173 54.0994 19.4381 54.6257 19.4381C54.8068 19.4381 55.0139 19.4208 55.2468 19.3949C55.4797 19.3691 55.704 19.3087 55.9024 19.231C56.1095 19.1534 56.2734 19.0326 56.4114 18.8773C56.5408 18.722 56.6012 18.5236 56.5926 18.2734C56.584 18.0233 56.4891 17.8162 56.3165 17.6609C56.144 17.497 55.9283 17.3762 55.6609 17.2727C55.3935 17.1778 55.0915 17.0916 54.7464 17.0225C54.4014 16.9535 54.0563 16.8759 53.7026 16.7982C53.3403 16.7206 52.9866 16.6171 52.6501 16.5049C52.3137 16.3928 52.0117 16.2375 51.7443 16.0391C51.4768 15.8493 51.2612 15.5991 51.1059 15.2972C50.942 14.9952 50.8643 14.6243 50.8643 14.1757C50.8643 13.6926 50.9851 13.2957 51.218 12.9679C51.451 12.6401 51.7529 12.3813 52.1066 12.1829C52.4689 11.9844 52.8658 11.8464 53.3057 11.7601C53.7457 11.6825 54.1684 11.6394 54.5653 11.6394C55.0225 11.6394 55.4625 11.6911 55.8766 11.786C56.2907 11.8809 56.6702 12.0362 57.0067 12.2605C57.3431 12.4762 57.6192 12.7609 57.8435 13.1059C58.0678 13.451 58.2058 13.8737 58.2662 14.3655H56.2303C56.1354 13.8996 55.9283 13.5804 55.5919 13.4251C55.2554 13.2612 54.8672 13.1836 54.4359 13.1836C54.2978 13.1836 54.1339 13.1922 53.9441 13.2181C53.7543 13.244 53.5818 13.2871 53.4093 13.3475C53.2454 13.4079 53.1073 13.5028 52.9866 13.6236C52.8744 13.7443 52.814 13.8996 52.814 14.098C52.814 14.3396 52.9003 14.5294 53.0642 14.676C53.2281 14.8227 53.4438 14.9435 53.7112 15.047C53.9786 15.1419 54.2806 15.2282 54.6257 15.2972C54.9707 15.3662 55.3244 15.4438 55.6868 15.5215C56.0405 15.5991 56.3855 15.7026 56.7306 15.8148C57.0757 15.9269 57.3776 16.0822 57.6451 16.2806C57.9125 16.4791 58.1282 16.7206 58.2921 17.0139C58.456 17.3072 58.5423 17.6782 58.5423 18.1095C58.5423 18.6358 58.4215 19.0757 58.1799 19.4467C57.9384 19.809 57.6278 20.111 57.2482 20.3353C56.8686 20.5596 56.4373 20.7321 55.9715 20.8356C55.5056 20.9392 55.0398 20.9909 54.5825 20.9909C54.0218 20.9909 53.5042 20.9305 53.0297 20.8011C52.5552 20.6717 52.1411 20.4819 51.796 20.2317C51.451 19.9729 51.1749 19.6537 50.9765 19.2742C50.7781 18.8946 50.6745 18.4374 50.6573 17.9111H52.6242V17.8939ZM59.0599 11.8809H60.5351V9.22384H62.4848V11.8809H64.2446V13.3389H62.4848V18.0664C62.4848 18.2734 62.4934 18.446 62.5106 18.6013C62.5279 18.7479 62.571 18.8773 62.6314 18.9809C62.6918 19.0844 62.7867 19.162 62.9161 19.2138C63.0455 19.2655 63.2094 19.2914 63.4337 19.2914C63.5717 19.2914 63.7098 19.2914 63.8478 19.2828C63.9858 19.2742 64.1239 19.2569 64.2619 19.2224V20.7321C64.0462 20.758 63.8305 20.7752 63.6321 20.8011C63.4251 20.827 63.218 20.8356 63.0024 20.8356C62.4848 20.8356 62.0707 20.7839 61.7601 20.689C61.4495 20.5941 61.1994 20.4474 61.0268 20.2576C60.8456 20.0678 60.7335 19.8349 60.6645 19.5502C60.6041 19.2655 60.561 18.9377 60.5523 18.5754V13.3561H59.0771V11.8809H59.0599ZM65.6249 11.8809H67.4711V13.0801H67.5056C67.7817 12.5624 68.1612 12.2001 68.653 11.9758C69.1447 11.7515 69.6709 11.6394 70.249 11.6394C70.9477 11.6394 71.5516 11.7601 72.0692 12.0103C72.5868 12.2519 73.0182 12.5883 73.3633 13.0197C73.7083 13.451 73.9585 13.9514 74.1311 14.5208C74.3036 15.0901 74.3899 15.7026 74.3899 16.3497C74.3899 16.9449 74.3122 17.5229 74.1569 18.075C74.0016 18.6358 73.7687 19.1275 73.4582 19.5589C73.1476 19.9902 72.7507 20.3266 72.2676 20.5855C71.7845 20.8443 71.2238 20.9737 70.5681 20.9737C70.2835 20.9737 69.9988 20.9478 69.7141 20.896C69.4294 20.8443 69.1533 20.758 68.8945 20.6458C68.6357 20.5337 68.3855 20.387 68.1699 20.2059C67.9456 20.0247 67.7644 19.8177 67.6091 19.5847H67.5746V24.0017H65.6249V11.8809ZM72.4402 16.3151C72.4402 15.9183 72.3884 15.5301 72.2849 15.1505C72.1814 14.7709 72.0261 14.4431 71.819 14.1498C71.612 13.8565 71.3532 13.6236 71.0513 13.451C70.7407 13.2785 70.387 13.1836 69.9901 13.1836C69.1706 13.1836 68.5495 13.4683 68.1354 14.0376C67.7213 14.607 67.5142 15.3662 67.5142 16.3151C67.5142 16.7637 67.566 17.1778 67.6781 17.5574C67.7903 17.937 67.9456 18.2648 68.1699 18.5409C68.3855 18.8169 68.6444 19.0326 68.9463 19.1879C69.2482 19.3518 69.6019 19.4294 69.9988 19.4294C70.4474 19.4294 70.8183 19.3346 71.1289 19.1534C71.4395 18.9722 71.6896 18.7307 71.8881 18.446C72.0865 18.1527 72.2331 17.8248 72.3194 17.4539C72.397 17.0829 72.4402 16.7034 72.4402 16.3151ZM75.8823 8.50781H77.832V10.354H75.8823V8.50781ZM75.8823 11.8809H77.832V20.7321H75.8823V11.8809ZM79.5746 8.50781H81.5243V20.7321H79.5746V8.50781ZM87.5027 20.9737C86.7953 20.9737 86.1656 20.8529 85.6134 20.62C85.0613 20.387 84.5955 20.0592 84.2073 19.6537C83.8277 19.2397 83.5344 18.7479 83.3359 18.1785C83.1375 17.6092 83.034 16.9794 83.034 16.2979C83.034 15.625 83.1375 15.0039 83.3359 14.4345C83.5344 13.8651 83.8277 13.3734 84.2073 12.9593C84.5868 12.5452 85.0613 12.226 85.6134 11.9931C86.1656 11.7601 86.7953 11.6394 87.5027 11.6394C88.2101 11.6394 88.8399 11.7601 89.392 11.9931C89.9441 12.226 90.41 12.5538 90.7982 12.9593C91.1778 13.3734 91.4711 13.8651 91.6695 14.4345C91.8679 15.0039 91.9715 15.625 91.9715 16.2979C91.9715 16.9794 91.8679 17.6092 91.6695 18.1785C91.4711 18.7479 91.1778 19.2397 90.7982 19.6537C90.4186 20.0678 89.9441 20.387 89.392 20.62C88.8399 20.8529 88.2101 20.9737 87.5027 20.9737ZM87.5027 19.4294C87.9341 19.4294 88.3137 19.3346 88.6329 19.1534C88.952 18.9722 89.2109 18.7307 89.4179 18.4374C89.6249 18.144 89.7716 17.8076 89.8751 17.4366C89.97 17.0657 90.0218 16.6861 90.0218 16.2979C90.0218 15.9183 89.97 15.5474 89.8751 15.1678C89.7802 14.7882 89.6249 14.4604 89.4179 14.167C89.2109 13.8737 88.952 13.6408 88.6329 13.4596C88.3137 13.2785 87.9341 13.1836 87.5027 13.1836C87.0714 13.1836 86.6918 13.2785 86.3726 13.4596C86.0534 13.6408 85.7946 13.8824 85.5876 14.167C85.3805 14.4604 85.2339 14.7882 85.1303 15.1678C85.0354 15.5474 84.9837 15.9183 84.9837 16.2979C84.9837 16.6861 85.0354 17.0657 85.1303 17.4366C85.2252 17.8076 85.3805 18.144 85.5876 18.4374C85.7946 18.7307 86.0534 18.9722 86.3726 19.1534C86.6918 19.3432 87.0714 19.4294 87.5027 19.4294ZM92.5408 11.8809H94.016V9.22384H95.9657V11.8809H97.7256V13.3389H95.9657V18.0664C95.9657 18.2734 95.9743 18.446 95.9916 18.6013C96.0088 18.7479 96.052 18.8773 96.1124 18.9809C96.1728 19.0844 96.2677 19.162 96.3971 19.2138C96.5265 19.2655 96.6904 19.2914 96.9147 19.2914C97.0527 19.2914 97.1907 19.2914 97.3288 19.2828C97.4668 19.2742 97.6048 19.2569 97.7428 19.2224V20.7321C97.5272 20.758 97.3115 20.7752 97.1131 20.8011C96.906 20.827 96.699 20.8356 96.4833 20.8356C95.9657 20.8356 95.5516 20.7839 95.2411 20.689C94.9305 20.5941 94.6803 20.4474 94.5078 20.2576C94.3266 20.0678 94.2145 19.8349 94.1454 19.5502C94.0851 19.2655 94.0419 18.9377 94.0333 18.5754V13.3561H92.5581V11.8809H92.5408Z" fill="#333333"/>
<path d="M23.4047 8.50611H14.4673L11.7067 0L8.93745 8.50611L0 8.49748L7.23796 13.7599L4.46873 22.2574L11.7067 17.0036L18.936 22.2574L16.1754 13.7599L23.4047 8.50611Z" fill="#00B67A"/>
<path d="M16.7969 15.6855L16.1758 13.7617L11.707 17.0054L16.7969 15.6855Z" fill="#005128"/>
</svg>
