<svg width="12" height="10" viewBox="0 0 12 10" fill="none" xmlns="http://www.w3.org/2000/svg">
<path d="M3.77376 9.87611C8.30208 9.87611 10.7789 6.12443 10.7789 2.87099C10.7789 2.76443 10.7789 2.65835 10.7717 2.55275C11.2535 2.20423 11.6695 1.77269 12 1.27835C11.5507 1.47755 11.074 1.60813 10.5859 1.66571C11.0999 1.35806 11.4846 0.874104 11.6683 0.303952C11.185 0.590756 10.6563 0.792866 10.105 0.901553C9.73376 0.506841 9.24281 0.245473 8.7081 0.157895C8.17338 0.0703162 7.62471 0.16141 7.14698 0.417079C6.66926 0.672748 6.28911 1.07874 6.06537 1.57223C5.84163 2.06571 5.78677 2.61918 5.90928 3.14699C4.93045 3.09789 3.97288 2.84351 3.09873 2.40035C2.22458 1.9572 1.45338 1.33518 0.8352 0.574672C0.520364 1.11667 0.423936 1.75829 0.56555 2.36888C0.707163 2.97948 1.07617 3.51315 1.59744 3.86123C1.20562 3.84975 0.822324 3.74405 0.48 3.55307V3.58427C0.480156 4.1527 0.676926 4.70357 1.03694 5.14346C1.39695 5.58334 1.89803 5.88516 2.4552 5.99771C2.09274 6.09658 1.71244 6.11103 1.34352 6.03995C1.50091 6.52911 1.80721 6.95687 2.21962 7.26342C2.63202 7.56997 3.12991 7.73999 3.64368 7.74971C3.13322 8.15095 2.54866 8.44761 1.92344 8.62271C1.29822 8.79782 0.644607 8.84793 0 8.77019C1.12592 9.4927 2.43596 9.87595 3.77376 9.87419" fill="#1DA1F2"/>
</svg>
