<svg width="100" height="32" viewBox="0 0 100 32" fill="none" xmlns="http://www.w3.org/2000/svg">
<g clip-path="url(#clip0)">
<path d="M26.2803 12.4243H36.4057V14.3134H32.4244V24.9331H30.2351V14.3134H26.2715V12.4243H26.2803ZM35.9731 15.8759H37.8446V17.6238H37.8799C37.9417 17.3766 38.0564 17.1383 38.2242 16.9088C38.3919 16.6793 38.5949 16.4586 38.8333 16.2732C39.0716 16.079 39.3365 15.9289 39.6278 15.8053C39.9191 15.6906 40.2192 15.6288 40.5194 15.6288C40.7489 15.6288 40.9166 15.6376 41.0049 15.6464C41.0932 15.6552 41.1814 15.6729 41.2785 15.6817V17.6062C41.1373 17.5797 40.9961 17.562 40.846 17.5444C40.6959 17.5267 40.5547 17.5179 40.4134 17.5179C40.078 17.5179 39.7602 17.5885 39.46 17.7209C39.1599 17.8533 38.9039 18.0564 38.6832 18.3124C38.4625 18.5772 38.286 18.895 38.1535 19.2834C38.0211 19.6718 37.9593 20.1132 37.9593 20.6164V24.9243H35.9643V15.8759H35.9731ZM50.4505 24.9331H48.4908V23.6708H48.4555C48.2083 24.1298 47.8463 24.4918 47.3608 24.7654C46.8753 25.0391 46.3809 25.1803 45.8778 25.1803C44.686 25.1803 43.8209 24.889 43.2913 24.2975C42.7616 23.7061 42.4968 22.8145 42.4968 21.6228V15.8759H44.4918V21.4286C44.4918 22.223 44.6419 22.788 44.9509 23.1146C45.251 23.4413 45.6836 23.609 46.2309 23.609C46.6546 23.609 46.9989 23.5472 47.2814 23.4148C47.5639 23.2824 47.7934 23.1146 47.9611 22.8939C48.1377 22.6821 48.2612 22.4173 48.3407 22.1171C48.4201 21.817 48.4555 21.4903 48.4555 21.1372V15.8848H50.4505V24.9331ZM53.8492 22.0288C53.911 22.6115 54.1317 23.0175 54.5112 23.2559C54.8997 23.4854 55.3587 23.609 55.8972 23.609C56.0826 23.609 56.2944 23.5913 56.5328 23.5649C56.7711 23.5384 57.0007 23.4766 57.2037 23.3971C57.4156 23.3177 57.5833 23.1941 57.7245 23.0352C57.8569 22.8763 57.9187 22.6733 57.9099 22.4173C57.9011 22.1612 57.804 21.9494 57.6274 21.7905C57.4509 21.6228 57.2302 21.4992 56.9565 21.3932C56.6829 21.2961 56.3739 21.2079 56.0208 21.1372C55.6677 21.0666 55.3146 20.9872 54.9526 20.9077C54.5819 20.8283 54.2199 20.7223 53.8757 20.6076C53.5314 20.4928 53.2224 20.3339 52.9487 20.1309C52.6751 19.9367 52.4544 19.6807 52.2955 19.3717C52.1278 19.0627 52.0483 18.6831 52.0483 18.2241C52.0483 17.7298 52.1719 17.3237 52.4103 16.9882C52.6486 16.6528 52.9576 16.3879 53.3195 16.1849C53.6903 15.9819 54.0963 15.8406 54.5466 15.7524C54.9968 15.6729 55.4293 15.6288 55.8354 15.6288C56.3033 15.6288 56.7535 15.6817 57.1772 15.7788C57.6009 15.8759 57.9894 16.0348 58.3336 16.2644C58.6779 16.4851 58.9604 16.7764 59.1899 17.1295C59.4194 17.4826 59.5607 17.9151 59.6225 18.4183H57.5391C57.442 17.9416 57.2302 17.615 56.8859 17.4561C56.5416 17.2884 56.1444 17.2089 55.703 17.2089C55.5617 17.2089 55.394 17.2177 55.1998 17.2442C55.0056 17.2707 54.829 17.3149 54.6525 17.3766C54.4848 17.4384 54.3435 17.5355 54.2199 17.6591C54.1052 17.7827 54.0434 17.9416 54.0434 18.1447C54.0434 18.3918 54.1317 18.586 54.2994 18.7361C54.4671 18.8862 54.6878 19.0098 54.9615 19.1157C55.2351 19.2128 55.5441 19.3011 55.8972 19.3717C56.2503 19.4423 56.6122 19.5218 56.983 19.6012C57.3449 19.6807 57.698 19.7866 58.0511 19.9014C58.4043 20.0161 58.7132 20.175 58.9869 20.3781C59.2605 20.5811 59.4812 20.8283 59.649 21.1284C59.8167 21.4286 59.905 21.8081 59.905 22.2495C59.905 22.788 59.7814 23.2382 59.5342 23.6178C59.287 23.9886 58.9692 24.2975 58.5808 24.5271C58.1924 24.7566 57.751 24.9331 57.2743 25.0391C56.7976 25.145 56.3209 25.198 55.8531 25.198C55.2793 25.198 54.7496 25.1362 54.2641 25.0038C53.7785 24.8713 53.3548 24.6771 53.0017 24.4211C52.6486 24.1563 52.3661 23.8297 52.1631 23.4413C51.96 23.0528 51.8541 22.585 51.8365 22.0465H53.8492V22.0288ZM60.4346 15.8759H61.9442V13.157H63.9392V15.8759H65.7401V17.3678H63.9392V22.2054C63.9392 22.4173 63.948 22.5938 63.9657 22.7527C63.9833 22.9028 64.0275 23.0352 64.0893 23.1411C64.1511 23.2471 64.2482 23.3265 64.3806 23.3795C64.513 23.4324 64.6807 23.4589 64.9103 23.4589C65.0515 23.4589 65.1927 23.4589 65.334 23.4501C65.4752 23.4413 65.6165 23.4236 65.7577 23.3883V24.9331C65.537 24.9596 65.3163 24.9773 65.1133 25.0038C64.9014 25.0302 64.6896 25.0391 64.4689 25.0391C63.9392 25.0391 63.5155 24.9861 63.1977 24.889C62.8799 24.7919 62.6239 24.6418 62.4473 24.4476C62.262 24.2534 62.1472 24.0151 62.0766 23.7237C62.0148 23.4324 61.9706 23.097 61.9618 22.7262V17.3855H60.4523V15.8759H60.4346ZM67.1525 15.8759H69.0416V17.103H69.0769C69.3594 16.5733 69.7478 16.2026 70.251 15.973C70.7542 15.7435 71.2927 15.6288 71.8841 15.6288C72.5992 15.6288 73.2171 15.7524 73.7468 16.0084C74.2764 16.2555 74.7178 16.5998 75.0709 17.0412C75.424 17.4826 75.68 17.9946 75.8566 18.5772C76.0331 19.1598 76.1214 19.7866 76.1214 20.4487C76.1214 21.0578 76.042 21.6492 75.8831 22.2142C75.7242 22.788 75.4858 23.2912 75.168 23.7326C74.8502 24.174 74.4442 24.5182 73.9498 24.7831C73.4555 25.0479 72.8817 25.1803 72.2108 25.1803C71.9194 25.1803 71.6281 25.1538 71.3368 25.1009C71.0455 25.0479 70.763 24.9596 70.4982 24.8449C70.2333 24.7301 69.9773 24.58 69.7567 24.3947C69.5271 24.2093 69.3418 23.9974 69.1829 23.7591H69.1475V28.2788H67.1525V15.8759V15.8759ZM74.1264 20.4134C74.1264 20.0073 74.0734 19.6101 73.9675 19.2216C73.8615 18.8332 73.7026 18.4978 73.4908 18.1976C73.2789 17.8975 73.0141 17.6591 72.7051 17.4826C72.3873 17.306 72.0254 17.2089 71.6193 17.2089C70.7807 17.2089 70.1451 17.5002 69.7213 18.0829C69.2976 18.6655 69.0857 19.4423 69.0857 20.4134C69.0857 20.8724 69.1387 21.2961 69.2535 21.6846C69.3682 22.073 69.5271 22.4084 69.7567 22.6909C69.9773 22.9734 70.2422 23.1941 70.5511 23.353C70.8601 23.5207 71.2221 23.6002 71.6281 23.6002C72.0872 23.6002 72.4668 23.5031 72.7846 23.3177C73.1024 23.1323 73.3583 22.8851 73.5614 22.5938C73.7644 22.2937 73.9145 21.9582 74.0028 21.5786C74.0822 21.199 74.1264 20.8106 74.1264 20.4134V20.4134ZM77.6486 12.4243H79.6437V14.3134H77.6486V12.4243ZM77.6486 15.8759H79.6437V24.9331H77.6486V15.8759ZM81.4269 12.4243H83.4219V24.9331H81.4269V12.4243ZM89.5395 25.1803C88.8156 25.1803 88.1712 25.0567 87.6062 24.8184C87.0413 24.58 86.5646 24.2446 86.1673 23.8297C85.7789 23.406 85.4788 22.9028 85.2757 22.3201C85.0727 21.7375 84.9668 21.0931 84.9668 20.3957C84.9668 19.7072 85.0727 19.0716 85.2757 18.4889C85.4788 17.9063 85.7789 17.4031 86.1673 16.9794C86.5557 16.5557 87.0413 16.229 87.6062 15.9907C88.1712 15.7524 88.8156 15.6288 89.5395 15.6288C90.2634 15.6288 90.9078 15.7524 91.4728 15.9907C92.0377 16.229 92.5144 16.5645 92.9117 16.9794C93.3001 17.4031 93.6002 17.9063 93.8033 18.4889C94.0063 19.0716 94.1122 19.7072 94.1122 20.3957C94.1122 21.0931 94.0063 21.7375 93.8033 22.3201C93.6002 22.9028 93.3001 23.406 92.9117 23.8297C92.5233 24.2534 92.0377 24.58 91.4728 24.8184C90.9078 25.0567 90.2634 25.1803 89.5395 25.1803V25.1803ZM89.5395 23.6002C89.9809 23.6002 90.3693 23.5031 90.6959 23.3177C91.0226 23.1323 91.2874 22.8851 91.4992 22.585C91.7111 22.2848 91.8612 21.9406 91.9671 21.561C92.0642 21.1814 92.1172 20.793 92.1172 20.3957C92.1172 20.0073 92.0642 19.6277 91.9671 19.2393C91.87 18.8509 91.7111 18.5154 91.4992 18.2153C91.2874 17.9151 91.0226 17.6768 90.6959 17.4914C90.3693 17.306 89.9809 17.2089 89.5395 17.2089C89.0981 17.2089 88.7097 17.306 88.3831 17.4914C88.0564 17.6768 87.7916 17.924 87.5798 18.2153C87.3679 18.5154 87.2178 18.8509 87.1119 19.2393C87.0148 19.6277 86.9618 20.0073 86.9618 20.3957C86.9618 20.793 87.0148 21.1814 87.1119 21.561C87.209 21.9406 87.3679 22.2848 87.5798 22.585C87.7916 22.8851 88.0564 23.1323 88.3831 23.3177C88.7097 23.5119 89.0981 23.6002 89.5395 23.6002V23.6002ZM94.6949 15.8759H96.2044V13.157H98.1995V15.8759H100V17.3678H98.1995V22.2054C98.1995 22.4173 98.2083 22.5938 98.2259 22.7527C98.2436 22.9028 98.2877 23.0352 98.3495 23.1411C98.4113 23.2471 98.5084 23.3265 98.6408 23.3795C98.7733 23.4324 98.941 23.4589 99.1705 23.4589C99.3117 23.4589 99.453 23.4589 99.5942 23.4501C99.7355 23.4413 99.8767 23.4236 100.018 23.3883V24.9331C99.7973 24.9596 99.5766 24.9773 99.3735 25.0038C99.1617 25.0302 98.9498 25.0391 98.7291 25.0391C98.1995 25.0391 97.7757 24.9861 97.4579 24.889C97.1401 24.7919 96.8841 24.6418 96.7076 24.4476C96.5222 24.2534 96.4074 24.0151 96.3368 23.7237C96.275 23.4324 96.2309 23.097 96.2221 22.7262V17.3855H94.7125V15.8759H94.6949Z" fill="black"/>
<path d="M23.9495 12.4248H14.804L11.9792 3.7207L9.14548 12.4248L0 12.416L7.40643 17.8009L4.57274 26.4961L11.9792 21.1201L19.3768 26.4961L16.5519 17.8009L23.9495 12.4248Z" fill="#00B67A"/>
<path d="M17.1878 19.7694L16.5522 17.8008L11.9795 21.12L17.1878 19.7694Z" fill="#005128"/>
</g>
<defs>
<clipPath id="clip0">
<rect width="100" height="24.5586" fill="white" transform="translate(0 3.7207)"/>
</clipPath>
</defs>
</svg>
